<?xml version="1.0" encoding="UTF-8"?>
<!DOCTYPE svg PUBLIC "-//W3C//DTD SVG 1.1//EN" "http://www.w3.org/Graphics/SVG/1.1/DTD/svg11.dtd">
<!-- Creator: CorelDRAW 2018 (64-Bit) -->
<svg xmlns="http://www.w3.org/2000/svg" xml:space="preserve" width="186px" height="223px" version="1.1" style="shape-rendering:geometricPrecision; text-rendering:geometricPrecision; image-rendering:optimizeQuality; fill-rule:evenodd; clip-rule:evenodd"
viewBox="0 0 186 223"
 xmlns:xlink="http://www.w3.org/1999/xlink">
 <defs>
  <style type="text/css">
   <![CDATA[
    .fil0 {fill:#FFFCE4;fill-rule:nonzero}
    .fil1 {fill:#F7A93B;fill-rule:nonzero}
    .fil3 {fill:#DA5464;fill-rule:nonzero}
    .fil2 {fill:#70B4A7;fill-rule:nonzero}
   ]]>
  </style>
 </defs>
 <g id="Слой_x0020_1">
  <metadata id="CorelCorpID_0Corel-Layer"/>
  <g id="_3088262483248">
   <path class="fil0" d="M67.01 1.4c-39.8,4.95 -55.38,24.18 -60.03,29.74l0 0c-20.71,24.79 20.23,53.05 28.68,45.61l0 0c8.47,-7.43 16.88,-22.31 45.29,-19.33l0 0c12.86,1.34 7.45,26.77 2.98,27.76l0 0c-4.49,0.99 -13.43,3.47 -34.33,10.41l0 0c-20.9,6.94 -47.27,24.29 -49.26,51.06l0 0c-1.99,26.77 3.48,67.92 50.25,70.9l0 0c46.77,2.98 64.69,-30.25 64.69,-30.25l0 0c0,0 3.07,9.43 7.95,18.84l0 0c7.79,15 15.35,21.39 40.66,13.38l0 0c15.69,-4.95 24.52,-22.8 21.53,-25.77l0 0c-2.98,-2.98 -14.42,-10.91 -18.9,-31.24l0 0c-4.48,-20.32 -2.99,-36.68 -11.44,-98.65l0 0c-7.01,-51.28 -35.48,-63.86 -67.65,-63.86l0 0c-6.7,0 -13.56,0.55 -20.42,1.4zm-16.42 150.11c1.5,-27.36 44.06,-35.95 46.61,-29.65l0 0c6.81,16.85 2.64,44.13 -8.26,50.07l0 0c-3.66,2 -9.33,3.43 -15.21,3.43l0 0c-11.67,0 -24.13,-5.65 -23.14,-23.85l0 0z"/>
   <path class="fil1" d="M26.9 26.68c-2.27,0 -8.03,-1.87 -12.17,-3.71 3.34,-3 7.74,-6.35 13.43,-9.54 3.1,0.58 5.44,3.3 5.44,6.57 0,3.68 -3,6.68 -6.7,6.68z"/>
   <path class="fil1" d="M15.1 41.62c-1.77,-1.76 -4.93,-8.14 -6.43,-12.47 0.87,-1 1.93,-2.17 3.21,-3.47 4.34,1.47 10.92,4.7 12.71,6.48 2.62,2.62 2.62,6.85 0,9.46 -2.62,2.61 -6.87,2.61 -9.49,0z"/>
   <path class="fil1" d="M6.09 32.27c1.76,4.07 3.49,9.44 3.49,11.61 0,3.69 -3,6.68 -6.71,6.68 -0.41,0 -0.81,-0.04 -1.2,-0.11 -1.2,-5.85 -0.19,-12.1 4.42,-18.18z"/>
   <path class="fil2" d="M88.53 7.81c-2.62,2.61 -15.41,8.27 -16.6,7.09 -0.99,-0.99 2.82,-10.07 5.63,-14.54 3.31,-0.23 6.61,-0.36 9.87,-0.36l0 0c0.78,0 1.55,0.01 2.33,0.02 1.29,2.52 0.88,5.68 -1.23,7.79z"/>
   <path class="fil2" d="M90.8 26.68c-3.71,0 -16.77,-5.01 -16.77,-6.68 0,-1.68 13.06,-6.69 16.77,-6.69 3.71,0 6.71,2.99 6.71,6.69 0,3.68 -3.01,6.68 -6.71,6.68z"/>
   <path class="fil2" d="M79.01 41.62c-2.62,-2.61 -8.3,-15.36 -7.12,-16.54 1.19,-1.19 13.98,4.47 16.6,7.08 2.62,2.62 2.62,6.85 0,9.46 -2.62,2.61 -6.87,2.61 -9.48,0z"/>
   <path class="fil2" d="M60.07 43.88c0,-3.7 5.03,-16.71 6.71,-16.72 1.67,0.01 6.71,13.02 6.71,16.72 0,3.69 -3.01,6.68 -6.71,6.68 -3.71,0 -6.71,-2.99 -6.71,-6.68z"/>
   <path class="fil2" d="M45.08 32.13c2.62,-2.61 15.41,-8.27 16.6,-7.09 1.18,1.18 -4.5,13.93 -7.12,16.54 -2.63,2.61 -6.87,2.61 -9.48,0 -2.62,-2.61 -2.62,-6.84 0,-9.45z"/>
   <path class="fil2" d="M42.81 13.25c3.71,0 16.77,5.02 16.77,6.69 0,1.67 -13.06,6.69 -16.77,6.69 -3.71,0 -6.71,-3 -6.71,-6.69 0,-3.69 3.01,-6.69 6.71,-6.69z"/>
   <path class="fil2" d="M57.57 2.92c2.48,4.71 4.97,11.12 4.14,11.94 -1.18,1.18 -13.98,-4.48 -16.6,-7.09 -0.4,-0.4 -0.75,-0.85 -1.03,-1.31 4.09,-1.36 8.57,-2.56 13.49,-3.54z"/>
   <path class="fil2" d="M72.57 0.78c-1.55,5.17 -4.52,11.99 -5.74,11.99 -1.1,0 -3.67,-5.66 -5.29,-10.58 1.77,-0.29 3.6,-0.56 5.47,-0.79 1.86,-0.23 3.71,-0.44 5.56,-0.62z"/>
   <path class="fil3" d="M73.1 19.97c0,3.46 -2.82,6.27 -6.3,6.27 -3.47,0 -6.29,-2.81 -6.29,-6.27 0,-3.47 2.82,-6.28 6.29,-6.28 3.48,0 6.3,2.81 6.3,6.28z"/>
   <path class="fil3" d="M139.17 21.24c-0.78,-0.49 -1.24,-0.93 -1.24,-1.24 0,-0.07 0.02,-0.14 0.06,-0.21 0.4,0.47 0.79,0.96 1.18,1.45z"/>
   <path class="fil3" d="M142.91 41.62c-2.62,-2.61 -8.3,-15.36 -7.12,-16.54 0.58,-0.58 3.87,0.45 7.42,1.96 2.79,4.58 5.22,9.86 7.21,15.94 -2.47,1.12 -5.48,0.66 -7.51,-1.36z"/>
   <path class="fil3" d="M123.97 43.88c0,-3.7 5.03,-16.71 6.71,-16.72 1.68,0.01 6.71,13.02 6.71,16.72 0,3.69 -3,6.68 -6.71,6.68 -3.71,0 -6.71,-2.99 -6.71,-6.68z"/>
   <path class="fil3" d="M108.98 32.13c2.62,-2.61 15.41,-8.27 16.6,-7.09 1.19,1.18 -4.5,13.93 -7.12,16.54 -2.62,2.61 -6.86,2.61 -9.48,0 -2.62,-2.61 -2.62,-6.84 0,-9.45z"/>
   <path class="fil3" d="M106.71 13.25c3.71,0 16.77,5.02 16.77,6.69 0,1.67 -13.06,6.69 -16.77,6.69 -3.7,0 -6.71,-3 -6.71,-6.69 0,-3.69 3.01,-6.69 6.71,-6.69z"/>
   <path class="fil3" d="M123.93 8.16c1.35,3.26 2.22,6.16 1.69,6.7 -1.18,1.18 -13.98,-4.48 -16.61,-7.09 -1.59,-1.59 -2.21,-3.78 -1.87,-5.84 5.94,1.29 11.58,3.3 16.79,6.23z"/>
   <path class="fil3" d="M130.77 12.76l-0.04 0.01c-0.24,0 -0.54,-0.27 -0.9,-0.74 0.32,0.24 0.63,0.49 0.94,0.73z"/>
   <path class="fil2" d="M137 19.97c0,3.46 -2.82,6.27 -6.29,6.27 -3.48,0 -6.3,-2.81 -6.3,-6.27 0,-3.47 2.82,-6.28 6.3,-6.28 0.47,0 0.92,0.06 1.37,0.15 1.64,1.41 3.22,2.95 4.74,4.62 0.12,0.48 0.18,0.99 0.18,1.51z"/>
   <path class="fil1" d="M24.63 135.1c-2.62,2.61 -15.41,8.27 -16.6,7.09 -1.18,-1.18 4.49,-13.93 7.12,-16.54 2.62,-2.61 6.86,-2.61 9.48,0 2.62,2.6 2.62,6.84 0,9.45z"/>
   <path class="fil1" d="M26.9 153.97c-3.71,0 -16.77,-5.01 -16.78,-6.68 0.01,-1.68 13.07,-6.69 16.78,-6.69 3.7,0 6.7,2.99 6.7,6.69 0,3.69 -3,6.68 -6.7,6.68z"/>
   <path class="fil1" d="M15.1 168.91c-2.62,-2.61 -8.29,-15.36 -7.11,-16.54 1.18,-1.19 13.98,4.48 16.6,7.09 2.62,2.61 2.62,6.84 0,9.45 -2.62,2.61 -6.87,2.61 -9.49,0z"/>
   <path class="fil1" d="M0.04 158.71c1.12,-2.45 2.21,-4.25 2.83,-4.25 1.68,0 6.71,13.02 6.71,16.71 0,3.69 -3,6.68 -6.71,6.68 -0.13,0 -0.27,0 -0.41,-0.01 -1.55,-6.36 -2.25,-12.9 -2.42,-19.13z"/>
   <path class="fil1" d="M9.64 123.36c0,3.68 -5.03,16.7 -6.71,16.7 -0.32,0 -0.76,-0.47 -1.26,-1.25 1.57,-5.91 4.35,-11.28 7.94,-16.09 0.02,0.21 0.03,0.42 0.03,0.64z"/>
   <path class="fil2" d="M9.2 147.26c0,3.46 -2.82,6.27 -6.3,6.27 -1.03,0 -2,-0.24 -2.86,-0.68 0.05,-2.13 0.15,-4.2 0.3,-6.2l0 0c0.14,-1.84 0.4,-3.64 0.75,-5.4 0.58,-0.17 1.18,-0.26 1.81,-0.26 3.48,0 6.3,2.8 6.3,6.27z"/>
   <path class="fil2" d="M72.03 175.32c-1.23,1.55 -3.12,2.53 -5.25,2.53 -3.38,0 -6.17,-2.48 -6.64,-5.71 3.55,2.03 7.73,2.98 11.89,3.18z"/>
   <path class="fil2" d="M45.08 159.42c0.91,-0.91 3.08,-2.2 5.56,-3.44 0.4,5.22 2.09,9.18 4.58,12.11 -0.23,0.32 -0.46,0.58 -0.66,0.78 -2.63,2.61 -6.87,2.61 -9.48,0.01 -2.62,-2.62 -2.62,-6.85 0,-9.46z"/>
   <path class="fil2" d="M42.81 140.55c1.83,0 5.95,1.22 9.64,2.66 -1.04,2.55 -1.69,5.31 -1.86,8.3l0 0c0,0.15 -0.01,0.3 -0.01,0.44 -3.13,1.12 -6.24,1.97 -7.77,1.97 -3.71,0 -6.71,-2.99 -6.71,-6.68 0,-3.7 3.01,-6.69 6.71,-6.69z"/>
   <path class="fil2" d="M54.6 125.61c1.19,1.19 3.02,4.48 4.54,7.82 -2,1.98 -3.75,4.18 -5.15,6.62 -3.68,-1.6 -7.56,-3.68 -8.88,-4.99 -2.62,-2.61 -2.62,-6.84 0,-9.45 2.62,-2.61 6.87,-2.61 9.49,0z"/>
   <path class="fil2" d="M73.54 123.36c0,0.2 -0.02,0.44 -0.05,0.71 -4,1.71 -7.98,3.97 -11.48,6.8 -1.08,-3.05 -1.89,-6.03 -1.89,-7.51 0,-3.7 3.01,-6.69 6.71,-6.69 3.71,0 6.71,2.99 6.71,6.69z"/>
   <path class="fil3" d="M152.43 135.1c-2.62,2.61 -15.41,8.27 -16.6,7.09 -1.18,-1.18 4.5,-13.93 7.12,-16.54 2.62,-2.61 6.87,-2.61 9.48,0 2.62,2.6 2.62,6.84 0,9.45z"/>
   <path class="fil3" d="M154.7 153.97c-3.71,0 -16.77,-5.01 -16.77,-6.68 0,-1.68 13.06,-6.69 16.77,-6.69 3.71,0 6.71,2.99 6.71,6.69 0,3.69 -3,6.68 -6.71,6.68z"/>
   <path class="fil3" d="M142.91 168.91c-2.62,-2.61 -8.3,-15.36 -7.12,-16.54 1.19,-1.19 13.99,4.48 16.61,7.09 2.62,2.61 2.62,6.84 0,9.45 -2.62,2.61 -6.87,2.61 -9.49,0z"/>
   <path class="fil3" d="M123.97 171.17c0,-3.69 5.03,-16.71 6.71,-16.71 1.68,0 6.71,13.02 6.71,16.71 0,3.69 -3,6.68 -6.71,6.68 -3.71,0 -6.71,-2.99 -6.71,-6.68z"/>
   <path class="fil3" d="M108.98 159.42c2.62,-2.61 15.41,-8.27 16.6,-7.09 1.19,1.18 -4.5,13.93 -7.12,16.54 -2.62,2.61 -6.86,2.61 -9.48,0.01 -2.62,-2.62 -2.62,-6.85 0,-9.46z"/>
   <path class="fil3" d="M106.71 140.55c3.71,0 16.77,5.01 16.77,6.69 0,1.66 -13.06,6.68 -16.77,6.68 -3.35,0 -6.12,-2.44 -6.62,-5.64 0.12,-1.07 0.21,-2.15 0.28,-3.24 0.92,-2.62 3.41,-4.49 6.34,-4.49z"/>
   <path class="fil3" d="M118.5 125.61c2.62,2.61 8.3,15.36 7.12,16.54 -1.18,1.18 -13.98,-4.48 -16.61,-7.09 -2.62,-2.61 -2.62,-6.84 0,-9.45 2.63,-2.61 6.87,-2.61 9.49,0z"/>
   <path class="fil3" d="M137.44 123.36c0,3.68 -5.03,16.7 -6.71,16.7 -1.67,0 -6.71,-13.02 -6.71,-16.7 0,-3.7 3.01,-6.69 6.71,-6.69 3.71,0 6.71,2.99 6.71,6.69z"/>
   <path class="fil2" d="M137 147.26c0,3.46 -2.82,6.27 -6.29,6.27 -3.48,0 -6.3,-2.81 -6.3,-6.27 0,-3.47 2.82,-6.27 6.3,-6.27 3.47,0 6.29,2.8 6.29,6.27z"/>
   <path class="fil1" d="M164.31 149.52c-0.26,-0.71 -0.4,-1.48 -0.4,-2.28 0,-0.25 0.01,-0.5 0.04,-0.74 0.11,1.02 0.23,2.03 0.36,3.02z"/>
   <path class="fil3" d="M42.45 70.05c1.52,-3.35 3.36,-6.66 4.55,-7.85 2.11,-2.1 5.28,-2.51 7.8,-1.22 -5.21,2.49 -9.07,5.83 -12.35,9.07z"/>
   <path class="fil3" d="M46.96 105.47c-1.12,-1.13 -2.82,-4.12 -4.28,-7.27 2.34,-0.99 4.66,-1.86 6.92,-2.61l0 0c1.48,-0.49 2.9,-0.96 4.27,-1.41 1.14,0.68 2.06,1.32 2.58,1.83 2.62,2.62 2.62,6.84 0,9.46 -2.62,2.61 -6.87,2.61 -9.49,0z"/>
   <path class="fil3" d="M28.02 107.72c0,-0.5 0.1,-1.17 0.26,-1.95 3.62,-2.33 7.36,-4.36 11.08,-6.1 1.17,3.23 2.08,6.48 2.08,8.05 0,3.69 -3,6.68 -6.71,6.69 -3.7,0 -6.71,-3 -6.71,-6.69z"/>
   <path class="fil3" d="M22.56 62.16c2.29,2.29 6.95,12.4 7.26,15.63 -5.4,-0.86 -12.8,-5.02 -18.72,-11.02 0.03,-1.67 0.69,-3.33 1.97,-4.61 2.62,-2.61 6.87,-2.61 9.49,0z"/>
   <path class="fil3" d="M41.5 59.91c0,3.69 -5.03,16.71 -6.72,16.71 -1.67,0 -6.71,-13.02 -6.71,-16.71 0,-3.7 3.01,-6.69 6.71,-6.69 3.71,0 6.72,2.99 6.72,6.69z"/>
   <path class="fil2" d="M32.59 77.92c0.53,-0.19 1.1,-0.32 1.7,-0.36 -0.52,0.19 -1.09,0.31 -1.7,0.36z"/>
   <path class="fil1" d="M120.39 71.65c-2.62,2.62 -15.41,8.28 -16.6,7.1 -1.19,-1.19 4.5,-13.94 7.11,-16.55 2.63,-2.61 6.87,-2.61 9.49,0 2.62,2.61 2.62,6.84 0,9.45z"/>
   <path class="fil1" d="M122.66 90.52c-3.71,0 -16.77,-5.01 -16.78,-6.68 0.01,-1.67 13.07,-6.68 16.78,-6.68 3.7,0 6.7,2.99 6.7,6.68 0,3.69 -3,6.68 -6.7,6.68z"/>
   <path class="fil1" d="M110.86 105.47c-2.61,-2.62 -8.3,-15.36 -7.11,-16.55 1.18,-1.18 13.98,4.48 16.6,7.09 2.62,2.62 2.62,6.84 0,9.46 -2.62,2.61 -6.87,2.61 -9.49,0z"/>
   <path class="fil1" d="M91.93 107.72c0,-3.69 5.02,-16.71 6.7,-16.71 1.68,0 6.71,13.02 6.71,16.71 0,3.69 -3,6.68 -6.71,6.69 -3.7,0 -6.7,-3 -6.7,-6.69z"/>
   <path class="fil1" d="M76.93 95.97c2.62,-2.61 15.42,-8.27 16.61,-7.09 1.18,1.18 -4.5,13.94 -7.12,16.54 -2.63,2.62 -6.87,2.62 -9.49,0.01 -2.62,-2.61 -2.62,-6.84 0,-9.46z"/>
   <path class="fil1" d="M87.05 80.91c2.52,1.13 4.39,2.24 4.39,2.88 0,1.67 -13.07,6.68 -16.77,6.68 -1.64,0 -3.13,-0.58 -4.3,-1.55 6.94,-2.11 10.98,-3.17 13.56,-3.74l0 0c1.07,-0.24 2.2,-1.89 3.12,-4.27z"/>
   <path class="fil1" d="M88.42 64.94c2.74,4.67 6.09,12.83 5.15,13.76 -0.46,0.47 -2.74,-0.13 -5.49,-1.19 0.93,-3.92 1.27,-8.67 0.34,-12.57z"/>
   <path class="fil1" d="M105.4 59.91c0,3.69 -5.03,16.71 -6.71,16.71 -1.68,0 -6.71,-13.02 -6.71,-16.71 0,-3.7 3.01,-6.69 6.71,-6.69 3.7,0 6.71,2.99 6.71,6.69z"/>
   <path class="fil2" d="M104.96 83.81c0,3.47 -2.82,6.27 -6.3,6.27 -3.48,0 -6.29,-2.8 -6.29,-6.27 0,-3.46 2.81,-6.27 6.29,-6.27 3.48,0 6.3,2.81 6.3,6.27z"/>
   <path class="fil2" d="M155.83 107.72c0,-2.09 1.61,-7.17 3.32,-11.19 0.73,6.6 1.32,12.44 1.82,17.69 -2.95,-0.7 -5.14,-3.34 -5.14,-6.5z"/>
   <path class="fil2" d="M140.84 95.97c2.62,-2.61 15.41,-8.27 16.6,-7.09 1.18,1.18 -4.5,13.94 -7.12,16.54 -2.63,2.62 -6.87,2.62 -9.48,0.01 -2.62,-2.61 -2.62,-6.84 0,-9.46z"/>
   <path class="fil2" d="M138.57 77.1c3.7,0 16.77,5.01 16.77,6.69 0,1.67 -13.07,6.68 -16.77,6.68 -3.71,0 -6.71,-2.99 -6.71,-6.68 0,-3.7 3.01,-6.69 6.71,-6.69z"/>
   <path class="fil2" d="M150.36 62.16c1.61,1.6 4.37,7.02 5.99,11.24 0.24,1.87 0.47,3.68 0.69,5.46 -2.55,0.22 -13.74,-4.83 -16.17,-7.24 -2.62,-2.62 -2.62,-6.85 0,-9.46 2.62,-2.61 6.87,-2.61 9.49,0z"/>
   <path class="fil3" d="M158.2 88.34c-1.19,-1.14 -1.93,-2.75 -1.93,-4.53 0,-1.23 0.36,-2.38 0.97,-3.36 0.35,2.74 0.66,5.36 0.96,7.89z"/>
   <path class="fil3" d="M56.49 198.75c-2.63,2.61 -15.41,8.27 -16.61,7.09 -1.18,-1.19 4.5,-13.94 7.12,-16.54 2.63,-2.61 6.87,-2.61 9.49,0 2.62,2.6 2.62,6.84 0,9.45z"/>
   <path class="fil3" d="M58.76 217.62c-3.72,0 -16.78,-5.01 -16.78,-6.69 0,-1.67 13.07,-6.68 16.78,-6.68 3.7,0 6.7,2.99 6.7,6.68 0,3.7 -3,6.69 -6.7,6.69z"/>
   <path class="fil3" d="M39.82 216.05c0.01,-0.01 0.02,-0.03 0.03,-0.04 0.42,-0.42 2.34,0.04 4.76,0.92 -1.66,-0.24 -3.25,-0.54 -4.79,-0.88z"/>
   <path class="fil3" d="M19.29 206.43c4.22,1.56 8.24,3.52 8.24,4.45 0,0.18 -0.15,0.41 -0.43,0.66 -2.89,-1.49 -5.48,-3.2 -7.81,-5.11z"/>
   <path class="fil3" d="M22.56 189.26c2.61,2.6 8.3,15.35 7.11,16.54 -1.18,1.18 -13.98,-4.48 -16.6,-7.09 -2.62,-2.61 -2.62,-6.85 0,-9.45 2.62,-2.62 6.87,-2.62 9.49,0z"/>
   <path class="fil3" d="M41.5 187c0,3.69 -5.03,16.71 -6.72,16.71 -1.67,0 -6.71,-13.02 -6.71,-16.71 0,-3.69 3.01,-6.68 6.71,-6.68 3.71,0 6.72,2.99 6.72,6.68z"/>
   <path class="fil2" d="M41.05 210.91c0,1.97 -0.91,3.74 -2.35,4.89 -3.69,-0.9 -7.04,-2.08 -10.08,-3.51 -0.1,-0.45 -0.16,-0.91 -0.16,-1.38 0,-3.47 2.82,-6.27 6.3,-6.27 3.47,0 6.29,2.8 6.29,6.27z"/>
   <path class="fil1" d="M120.39 198.75c-0.14,0.13 -0.3,0.27 -0.48,0.42 -2.75,-6.23 -4.43,-11.27 -4.62,-11.82 1.84,-0.1 3.7,0.55 5.1,1.95 2.62,2.6 2.62,6.84 0,9.45zm-15.01 0.62c1.65,-4 4.06,-8.62 5.52,-10.07 1.21,-1.21 2.77,-1.86 4.35,-1.95 -0.31,0.56 -3.38,5.94 -9.87,12.02z"/>
   <path class="fil1" d="M122.28 204.26c0.13,-0.01 0.26,-0.01 0.38,-0.01 3.7,0 6.7,2.99 6.7,6.68 0,1.31 -0.37,2.53 -1.02,3.55 -1.81,-2.35 -3.45,-5.15 -5.11,-8.34l0 0c-0.32,-0.63 -0.64,-1.25 -0.95,-1.88z"/>
   <path class="fil1" d="M74.67 204.19c3.11,0 12.84,3.54 15.86,5.67 -5.48,2.84 -11.98,5.22 -19.56,6.6 -1.81,-1.19 -3.01,-3.25 -3.01,-5.58 0,-3.69 3,-6.69 6.71,-6.69z"/>
   <path class="fil1" d="M86.46 189.26c2.62,2.6 8.3,15.35 7.11,16.54 -1.18,1.18 -13.98,-4.48 -16.6,-7.09 -2.62,-2.61 -2.62,-6.85 0,-9.45 2.62,-2.62 6.87,-2.62 9.49,0z"/>
   <path class="fil1" d="M105.4 187c0,3.69 -5.03,16.71 -6.71,16.71 -1.68,0 -6.71,-13.02 -6.71,-16.71 0,-3.69 3.01,-6.68 6.71,-6.68 3.7,0 6.71,2.99 6.71,6.68z"/>
   <path class="fil2" d="M92.79 208.64c0.91,-2.35 3.2,-4 5.87,-4 0.11,0 0.22,0 0.33,0 -1.88,1.37 -3.95,2.72 -6.2,4z"/>
   <path class="fil2" d="M184.29 198.75c-2.62,2.61 -15.41,8.27 -16.6,7.09 -1.18,-1.19 4.5,-13.94 7.12,-16.54 1.12,-1.12 2.55,-1.76 4.01,-1.92 2.89,3.22 5.42,5.18 6.6,6.37l0 0c0.44,0.43 0.62,1.17 0.57,2.13 -0.3,1.05 -0.87,2.04 -1.7,2.87z"/>
   <path class="fil2" d="M174.26 213.85c-2.56,-1.15 -4.47,-2.28 -4.47,-2.92 0,-1.24 7.17,-4.31 12.4,-5.82 -1.97,2.98 -4.64,6.09 -7.93,8.74z"/>
   <path class="fil2" d="M167.7 218.01c-0.24,-1.02 -0.29,-1.75 -0.05,-2 0.32,-0.32 1.49,-0.14 3.08,0.35 -0.97,0.6 -1.98,1.15 -3.03,1.65z"/>
   <path class="fil2" d="M160.61 220.51c0.78,-1.46 1.47,-2.41 1.93,-2.41 0.34,0 0.81,0.54 1.36,1.42l-0.01 0 0 0c-1.13,0.36 -2.22,0.69 -3.28,0.99z"/>
   <path class="fil2" d="M141.29 222.66c3.39,-2.74 15.02,-7.81 16.15,-6.68 0.48,0.47 -0.17,2.84 -1.28,5.67 -6.06,1.38 -10.89,1.67 -14.87,1.01z"/>
   <path class="fil2" d="M138.57 204.19c3.7,0 16.77,5.02 16.77,6.69 0,1.67 -13.07,6.68 -16.77,6.68 -3.71,0 -6.71,-2.99 -6.71,-6.68 0,-3.69 3.01,-6.69 6.71,-6.69z"/>
   <path class="fil2" d="M150.36 189.26c2.62,2.6 8.3,15.35 7.12,16.54 -1.19,1.18 -13.99,-4.48 -16.61,-7.09 -2.62,-2.61 -2.62,-6.85 0,-9.45 2.62,-2.62 6.87,-2.62 9.49,0z"/>
   <path class="fil2" d="M169.3 187c0,3.69 -5.03,16.71 -6.71,16.71 -1.68,0 -6.71,-13.02 -6.71,-16.71 0,-3.69 3.01,-6.68 6.71,-6.68 3.71,0 6.71,2.99 6.71,6.68z"/>
   <path class="fil3" d="M168.86 210.91c0,3.46 -2.82,6.27 -6.3,6.27 -3.47,0 -6.29,-2.81 -6.29,-6.27 0,-3.47 2.82,-6.27 6.29,-6.27 3.48,0 6.3,2.8 6.3,6.27z"/>
  </g>
 </g>
</svg>
