<?xml version="1.0" encoding="UTF-8"?>
<!DOCTYPE svg PUBLIC "-//W3C//DTD SVG 1.1//EN" "http://www.w3.org/Graphics/SVG/1.1/DTD/svg11.dtd">
<!-- Creator: CorelDRAW 2018 (64-Bit) -->
<svg xmlns="http://www.w3.org/2000/svg" xml:space="preserve" width="208px" height="142px" version="1.1" style="shape-rendering:geometricPrecision; text-rendering:geometricPrecision; image-rendering:optimizeQuality; fill-rule:evenodd; clip-rule:evenodd"
viewBox="0 0 208 142"
 xmlns:xlink="http://www.w3.org/1999/xlink">
 <defs>
  <style type="text/css">
   <![CDATA[
    .fil0 {fill:#59361B}
   ]]>
  </style>
 </defs>
 <g id="Слой_x0020_1">
  <metadata id="CorelCorpID_0Corel-Layer"/>
  <path class="fil0" d="M171.6 54.14c-7.8,-31.07 -34.67,-54.14 -67.6,-54.14 -26,0 -48.54,14.2 -60.67,36.39 -24.26,4.43 -43.33,25.74 -43.33,52.36 0,29.29 23.4,53.25 52,53.25 8.67,0 103.13,0 112.67,0 24.26,0 43.33,-19.53 43.33,-44.37 0,-22.19 -15.6,-40.83 -36.4,-43.49zm-84.94 25.73l0 -35.5 34.67 0 0 35.5 26 0 -43.33 44.38 -43.33 -44.38 25.99 0z"/>
 </g>
</svg>
