<?xml version="1.0" encoding="UTF-8"?>
<!DOCTYPE svg PUBLIC "-//W3C//DTD SVG 1.1//EN" "http://www.w3.org/Graphics/SVG/1.1/DTD/svg11.dtd">
<!-- Creator: CorelDRAW 2018 (64-Bit) -->
<svg xmlns="http://www.w3.org/2000/svg" xml:space="preserve" width="95px" height="93px" version="1.1" style="shape-rendering:geometricPrecision; text-rendering:geometricPrecision; image-rendering:optimizeQuality; fill-rule:evenodd; clip-rule:evenodd"
viewBox="0 0 95 93"
 xmlns:xlink="http://www.w3.org/1999/xlink">
 <defs>
  <style type="text/css">
   <![CDATA[
    .fil0 {fill:#D71C6D;fill-rule:nonzero}
   ]]>
  </style>
 </defs>
 <g id="Слой_x0020_1">
  <metadata id="CorelCorpID_0Corel-Layer"/>
  <path class="fil0" d="M86.72 23.93c-5.76,-4.22 -12.73,-3.29 -12.73,-3.29 -3.55,0.47 -6.75,-2.07 -7.11,-5.65 0,0 -0.27,-2.68 -3.13,-6.65 -6.52,-9.04 -19.08,-11.04 -28.05,-4.47 -5.77,4.21 -7.04,11.18 -7.04,11.18 -0.65,3.54 -4.04,5.82 -7.54,5.06 0,0 -2.61,-0.57 -7.24,0.94 -10.55,3.46 -16.32,14.87 -12.89,25.5 2.2,6.83 8.38,10.21 8.38,10.21 3.14,1.71 4.25,5.66 2.45,8.77 0,0 -1.34,2.33 -1.34,7.24 0,11.17 8.99,20.22 20.08,20.22 7.13,0 12.22,-4.87 12.22,-4.87 2.59,-2.48 6.66,-2.32 9.05,0.36 0,0 1.79,2.01 6.41,3.53 10.55,3.45 21.88,-2.37 25.3,-12.99 2.21,-6.83 -0.82,-13.22 -0.82,-13.22 -1.55,-3.25 -0.13,-7.1 3.14,-8.56 0,0 2.44,-1.09 5.3,-5.05 6.52,-9.04 4.53,-21.69 -4.44,-28.26z"/>
 </g>
</svg>
