<?xml version="1.0" encoding="UTF-8"?>
<!DOCTYPE svg PUBLIC "-//W3C//DTD SVG 1.1//EN" "http://www.w3.org/Graphics/SVG/1.1/DTD/svg11.dtd">
<!-- Creator: CorelDRAW 2018 (64-Bit) -->
<svg xmlns="http://www.w3.org/2000/svg" xml:space="preserve" width="36px" height="36px" version="1.1" style="shape-rendering:geometricPrecision; text-rendering:geometricPrecision; image-rendering:optimizeQuality; fill-rule:evenodd; clip-rule:evenodd"
viewBox="0 0 36 36"
 xmlns:xlink="http://www.w3.org/1999/xlink"
 enable-background="new 0 0 100 100">
 <defs>
  <style type="text/css">
   <![CDATA[
    .fil0 {fill:#59361B}
   ]]>
  </style>
 </defs>
 <g id="Слой_x0020_1">
  <metadata id="CorelCorpID_0Corel-Layer"/>
  <path class="fil0" d="M23.56 13.55l0 -0.01c0.3,0 0.61,0.01 0.91,0 0.39,-0.01 0.7,-0.34 0.7,-0.73 0,-0.58 0,-1.15 0,-1.73 0,-0.42 -0.33,-0.75 -0.74,-0.75 -0.58,0 -1.15,0 -1.73,0 -0.41,0 -0.74,0.34 -0.74,0.75 0,0.57 0,1.15 0,1.72 0,0.08 0.02,0.17 0.04,0.25 0.11,0.31 0.39,0.5 0.73,0.5 0.28,0 0.55,0 0.83,0zm-5.56 0.74c-2.03,0 -3.68,1.63 -3.71,3.65 -0.03,2.08 1.63,3.72 3.62,3.77 2.08,0.04 3.75,-1.61 3.8,-3.63 0.04,-2.07 -1.63,-3.79 -3.71,-3.79zm-7.17 1.98l0 0.05c0,2.71 0,5.42 0,8.13 0,0.39 0.33,0.72 0.72,0.72 4.3,0 8.6,0 12.89,0 0.4,0 0.73,-0.33 0.73,-0.73 0,-2.7 0,-5.41 0,-8.11l0 -0.06 -1.75 0c0.25,0.79 0.33,1.59 0.23,2.41 -0.1,0.82 -0.36,1.58 -0.79,2.28 -0.43,0.7 -0.99,1.29 -1.67,1.75 -1.76,1.2 -4.09,1.31 -5.97,0.26 -0.94,-0.53 -1.69,-1.27 -2.21,-2.23 -0.77,-1.42 -0.89,-2.92 -0.44,-4.47 -0.58,0 -1.16,0 -1.74,0zm14.49 10.88c0.1,-0.01 0.19,-0.03 0.29,-0.05 0.75,-0.16 1.36,-0.78 1.5,-1.53 0.02,-0.08 0.03,-0.16 0.04,-0.25l0 -14.64c-0.01,-0.08 -0.02,-0.16 -0.04,-0.24 -0.16,-0.82 -0.83,-1.46 -1.66,-1.57 -0.04,-0.01 -0.07,-0.02 -0.11,-0.02l-14.68 0c-0.09,0.01 -0.18,0.03 -0.27,0.04 -0.81,0.19 -1.41,0.84 -1.52,1.66 -0.01,0.04 -0.02,0.07 -0.02,0.11l0 14.68c0.01,0.1 0.03,0.19 0.05,0.28 0.18,0.8 0.85,1.41 1.66,1.51 0.04,0.01 0.08,0.02 0.12,0.02l14.64 0zm-7.32 8.85c-9.94,0 -18,-8.06 -18,-18 0,-9.94 8.06,-18 18,-18 9.94,0 18,8.06 18,18 0,9.94 -8.06,18 -18,18z"/>
 </g>
</svg>
