<?xml version="1.0" encoding="UTF-8"?>
<!DOCTYPE svg PUBLIC "-//W3C//DTD SVG 1.1//EN" "http://www.w3.org/Graphics/SVG/1.1/DTD/svg11.dtd">
<!-- Creator: CorelDRAW 2018 (64-Bit) -->
<svg xmlns="http://www.w3.org/2000/svg" xml:space="preserve" width="40px" height="48px" version="1.1" style="shape-rendering:geometricPrecision; text-rendering:geometricPrecision; image-rendering:optimizeQuality; fill-rule:evenodd; clip-rule:evenodd"
viewBox="0 0 40 48"
 xmlns:xlink="http://www.w3.org/1999/xlink">
 <defs>
  <style type="text/css">
   <![CDATA[
    .fil0 {fill:#70B4A7;fill-rule:nonzero}
   ]]>
  </style>
 </defs>
 <g id="Слой_x0020_1">
  <metadata id="CorelCorpID_0Corel-Layer"/>
  <path class="fil0" d="M19.13 37.01c-2.35,1.28 -8.57,1.49 -8.25,-4.4 0.32,-5.89 9.48,-7.74 10.02,-6.38 1.47,3.63 0.57,9.5 -1.77,10.78zm20.75 4.69c-0.65,-0.64 -3.11,-2.34 -4.07,-6.72 -0.96,-4.37 -0.64,-7.9 -2.46,-21.23 -1.82,-13.34 -10.38,-14.52 -18.94,-13.45 -8.56,1.07 -11.91,5.21 -12.91,6.4 -4.45,5.34 4.35,11.42 6.17,9.82 1.82,-1.6 3.63,-4.8 9.74,-4.16 2.76,0.29 1.6,5.76 0.64,5.97 -0.96,0.22 -2.89,0.75 -7.38,2.25 -4.5,1.49 -10.17,5.23 -10.6,10.99 -0.43,5.76 0.75,14.62 10.81,15.26 10.06,0.64 13.91,-6.51 13.91,-6.51 0,0 0.66,2.03 1.71,4.05 1.68,3.23 3.3,4.61 8.75,2.88 3.37,-1.06 5.27,-4.91 4.63,-5.55z"/>
 </g>
</svg>
