<?xml version="1.0" encoding="UTF-8"?>
<!DOCTYPE svg PUBLIC "-//W3C//DTD SVG 1.1//EN" "http://www.w3.org/Graphics/SVG/1.1/DTD/svg11.dtd">
<!-- Creator: CorelDRAW 2018 (64-Bit) -->
<svg xmlns="http://www.w3.org/2000/svg" xml:space="preserve" width="300px" height="131px" version="1.1" style="shape-rendering:geometricPrecision; text-rendering:geometricPrecision; image-rendering:optimizeQuality; fill-rule:evenodd; clip-rule:evenodd"
viewBox="0 0 300 131"
 xmlns:xlink="http://www.w3.org/1999/xlink">
 <defs>
  <style type="text/css">
   <![CDATA[
    .fil1 {fill:#FDD27C;fill-rule:nonzero}
    .fil2 {fill:#F18F71;fill-rule:nonzero}
    .fil3 {fill:#59361B;fill-rule:nonzero}
    .fil0 {fill:#B1DEF0;fill-rule:nonzero}
   ]]>
  </style>
 </defs>
 <g id="Слой_x0020_1">
  <metadata id="CorelCorpID_0Corel-Layer"/>
  <g id="_3052890580496">
   <path class="fil0" d="M206.31 37.51c0,-0.46 0.37,-0.83 0.83,-0.83 0.46,0 0.83,0.37 0.83,0.83 0,0.45 -0.37,0.82 -0.83,0.82 -0.46,0 -0.83,-0.37 -0.83,-0.82zm-24.47 11.61c0.69,0.95 0.87,1.48 0.95,2.95 0.09,1.48 0.09,2.53 0.96,3.4 0.87,0.87 0.26,1.82 1.13,2.87 0.88,1.04 3.75,3.39 9.15,3.65 5.4,0.26 10.37,0 13.42,-0.87 3.04,-0.87 5.48,-2.35 5.92,-6.44 0.43,-4.08 -2.96,-7.04 -4.1,-8.43 -1.13,-1.39 -0.87,-2.49 0.87,-3.11 1.75,-0.63 3.23,-0.02 4.45,-0.89 1.22,-0.87 2.16,-1.4 2.08,-2.44 -0.07,-0.75 -3.76,-0.99 -4.79,-1.15 -0.94,-0.16 -1.12,-0.67 -1.82,-2.15 -0.7,-1.48 -2.53,-4.78 -7.41,-4.44 -4.87,0.35 -7.31,4.18 -6.44,7.57 0.87,3.39 2.44,4.43 3.4,5.83 0.95,1.39 0.17,2.69 -1.23,1.91 -1.39,-0.79 -3.65,-0.96 -6.53,-0.61 -2.87,0.35 -2.35,1.34 -6.18,0.84 -3.83,-0.49 -2.88,-0.23 -3.83,-0.49 -0.96,-0.26 -0.7,1.04 0,2z"/>
   <path class="fil1" d="M171.75 23.91c0,2.94 -4.99,4.86 -6.05,7.41 -1.1,2.64 1.03,7.51 -0.97,9.5 -1.99,1.99 -6.87,-0.12 -9.52,0.97 -2.55,1.06 -4.48,6.04 -7.42,6.04 -2.94,0 -4.86,-4.98 -7.41,-6.04 -2.65,-1.09 -7.53,1.02 -9.53,-0.97 -1.99,-1.99 0.13,-6.86 -0.96,-9.5 -1.06,-2.55 -6.05,-4.47 -6.05,-7.41 0,-2.93 4.99,-4.85 6.05,-7.4 1.09,-2.65 -1.03,-7.51 0.97,-9.5 1.99,-2 6.87,0.12 9.52,-0.98 2.55,-1.05 4.47,-6.03 7.41,-6.03 2.94,0 4.87,4.98 7.42,6.03 2.65,1.1 7.53,-1.02 9.52,0.98 2,1.99 -0.13,6.86 0.97,9.5 1.06,2.55 6.05,4.47 6.05,7.4z"/>
   <path class="fil2" d="M100.68 50.38c-4.4,-7.23 -0.63,-18.47 -0.63,-18.47 0.77,-2.27 -0.55,-3.84 -2.92,-3.48 0,0 -2.7,0.4 -5.9,2.35 -9.74,5.91 -12.84,18.6 -6.91,28.33 5.93,9.73 18.63,12.82 28.38,6.9 2.5,-1.52 3.3,-2.44 3.3,-2.44 1.57,-1.82 0.94,-3.75 -1.39,-4.3 0,0 -9.95,-2.36 -13.93,-8.89z"/>
   <path class="fil2" d="M238.77 58.29c-1.82,0.99 -6.66,1.16 -6.41,-3.43 0.25,-4.58 7.37,-6.02 7.79,-4.96 1.14,2.82 0.45,7.39 -1.38,8.39zm16.13 3.65c-0.5,-0.5 -2.41,-1.83 -3.16,-5.23 -0.75,-3.41 -0.5,-6.15 -1.91,-16.52 -1.42,-10.38 -8.07,-11.3 -14.72,-10.47 -6.66,0.83 -9.26,4.05 -10.04,4.98 -3.46,4.16 3.38,8.89 4.8,7.64 1.41,-1.24 2.82,-3.73 7.57,-3.23 2.15,0.22 1.24,4.48 0.5,4.65 -0.75,0.16 -2.25,0.58 -5.74,1.74 -3.5,1.16 -7.9,4.07 -8.24,8.55 -0.33,4.48 0.59,11.38 8.4,11.88 7.82,0.5 10.81,-5.07 10.81,-5.07 0,0 0.52,1.58 1.33,3.15 1.31,2.52 2.57,3.59 6.8,2.25 2.62,-0.83 4.1,-3.82 3.6,-4.32z"/>
   <path class="fil0" d="M74.01 33.49c-1.6,-1.16 -3.52,-0.9 -3.52,-0.9 -0.98,0.13 -1.86,-0.57 -1.96,-1.55 0,0 -0.08,-0.73 -0.87,-1.82 -1.8,-2.47 -5.26,-3.02 -7.74,-1.22 -1.59,1.15 -1.94,3.06 -1.94,3.06 -0.18,0.97 -1.12,1.59 -2.08,1.38 0,0 -0.73,-0.15 -2,0.26 -2.92,0.95 -4.51,4.07 -3.56,6.98 0.6,1.86 2.31,2.79 2.31,2.79 0.87,0.47 1.17,1.55 0.68,2.4 0,0 -0.37,0.64 -0.37,1.98 0,3.06 2.48,5.53 5.54,5.53 1.97,0 3.38,-1.33 3.38,-1.33 0.71,-0.68 1.83,-0.63 2.49,0.1 0,0 0.5,0.55 1.77,0.96 2.92,0.95 6.04,-0.64 6.99,-3.55 0.61,-1.87 -0.23,-3.62 -0.23,-3.62 -0.43,-0.89 -0.04,-1.94 0.87,-2.34 0,0 0.67,-0.3 1.46,-1.38 1.8,-2.48 1.25,-5.94 -1.22,-7.73z"/>
   <path class="fil3" d="M299.21 85.95c0.67,-1.92 1.07,-3.73 0.56,-5.5 -0.39,-1.4 -2.36,-2.24 -4.16,-2.06 -2.78,0.26 -5.88,2.72 -8.64,6.14 -0.45,0.55 -0.85,1.06 -1.21,1.53 0.65,-3.53 0.67,-5.74 -0.29,-6.63 -1.32,-1.24 -3.06,-1.26 -5.1,-0.25 -1.72,0.85 -4.44,2.72 -7.51,7.11 -0.58,0.84 -1.05,1.48 -1.47,2.08 0.02,-0.12 0.05,-0.24 0.07,-0.37 0.35,-1.64 0.67,-3.75 0.67,-5.99 0,-0.82 -0.07,-5.21 -4.43,-7.6 -2.41,-1.33 -4.82,-1.59 -6.44,-1.77 -1.13,-0.12 -1.61,1.32 -0.32,1.77 3.71,1.29 4.43,3.35 4.37,6.65 -0.09,5.45 -2.92,15.2 -3.76,18.44 -0.63,2.43 -0.96,3.7 -1.23,5.46 -0.42,2.67 1.59,2.72 4.06,1.93 2.13,-0.68 2.6,-1.74 3.26,-3.95 0.39,-1.31 1.22,-4.46 1.96,-7.4 2.45,-5.28 6.17,-9.37 7.15,-10.51 1.38,-1.6 2.64,-1.48 2.52,-0.67 -0.16,1.04 -0.4,2.1 -1.42,6.12 -0.51,2.02 -1.21,5.16 -2.15,9.25 -0.6,2.6 -0.83,3.87 -1.06,5.24 -0.48,2.81 2.35,2.64 4.64,1.79 1.67,-0.62 2.34,-1.44 3.01,-5.09 0.48,-2.6 1.35,-6.3 2.05,-9.26 0.69,-1.59 1.68,-3.6 2.88,-5.21 1.85,-2.49 3.15,-3.82 3.98,-4.29 1.26,-0.72 1.93,0.15 1.51,1.97 -1.22,5.17 -1.83,6.35 -3.31,12.61 -1.25,5.31 0.08,11.43 1.04,13.46 1.03,2.2 2.5,3.47 3.6,4.08 1.06,0.59 2.48,-0.17 1.54,-1.32 -1.83,-2.24 -1.54,-6.44 -0.54,-12.31 0.55,-3.29 2.13,-9.57 4.17,-15.45z"/>
   <path class="fil3" d="M131.67 112.04c-1.83,-2.25 -2.28,-7.69 -1.29,-13.56 0.56,-3.29 2.06,-9.6 4.18,-15.46 1.08,-2.98 2.45,-4.64 -1.1,-4.64 -2.4,0 -4.7,0.95 -5.41,3.57 -0.79,2.94 -1.27,4.6 -1.82,6.66 -1.47,2.89 -4.23,8.18 -5.97,10.66 -1.59,2.25 -2.47,3.51 -3.44,3.24 -1.22,-0.34 -1.13,-1.8 -0.47,-4.28 0.67,-2.54 2.72,-10.32 3.88,-14.42 1.16,-4.14 0.03,-5.58 -2.91,-5.42 -2.95,0.17 -5.34,1.82 -7.35,4.07 -1.23,1.38 -1.99,2.69 -2.61,4.22 -0.44,1.06 -0.26,1.69 0.19,1.81 0.87,0.24 1.02,-1.35 2.82,-3.77 1.35,-1.81 2.17,-2.34 2.78,-2.18 0.63,0.16 0.53,1.03 -1.19,7.02 -1.47,5.06 -2.18,7.7 -2.95,11 -0.77,3.29 0.12,6 2.12,6.59 2.01,0.59 4.14,0.19 6.66,-2.12 2.39,-2.19 5.1,-6.89 6.96,-10.46 0,0 0,0 0,0 -1.25,5.31 0.12,12.66 2.2,15.9 1.77,2.74 3.39,3.78 4.77,4.49 0.69,0.36 1.66,0.53 1.99,-0.22 0.43,-0.98 -1.11,-1.55 -2.04,-2.7z"/>
   <path class="fil3" d="M190.84 78.38c-2.4,0 -4.7,0.95 -5.41,3.57 -0.79,2.94 -1.27,4.6 -1.82,6.66 -1.47,2.89 -4.23,8.18 -5.97,10.65 -1.59,2.26 -2.47,3.52 -3.44,3.25 -1.22,-0.34 -1.13,-1.8 -0.47,-4.29 0.67,-2.53 2.71,-10.31 3.87,-14.41 1.17,-4.14 0.04,-5.58 -2.9,-5.42 -2.95,0.17 -5.34,1.82 -7.36,4.07 -1.22,1.38 -1.98,2.69 -2.61,4.22 -0.43,1.06 -0.25,1.69 0.19,1.81 0.87,0.24 1.02,-1.35 2.82,-3.77 1.35,-1.81 2.17,-2.34 2.78,-2.18 0.64,0.16 0.54,1.03 -1.19,7.02 -1.46,5.06 -2.18,7.7 -2.95,11 -0.76,3.29 0.12,6 2.13,6.59 2,0.59 4.13,0.19 6.66,-2.12 2.39,-2.19 5.1,-6.89 6.96,-10.46 0,0 0,0 0,0 -1.26,5.31 0.12,12.66 2.2,15.9 1.77,2.74 3.38,3.78 4.76,4.49 0.7,0.36 1.67,0.53 2,-0.22 0.43,-0.98 -1.11,-1.55 -2.04,-2.7 -1.83,-2.24 -2.28,-7.69 -1.29,-13.56 0.56,-3.29 2.06,-9.6 4.18,-15.46 1.08,-2.98 2.45,-4.64 -1.1,-4.64z"/>
   <path class="fil3" d="M230.16 78.41c-2.78,0.27 -5.88,2.73 -8.65,6.14 -0.44,0.55 -0.84,1.06 -1.2,1.53 0.65,-3.52 0.67,-5.74 -0.29,-6.63 -1.32,-1.23 -3.06,-1.25 -5.1,-0.24 -1.72,0.85 -4.44,2.71 -7.51,7.1 -0.6,0.86 -1.06,1.5 -1.5,2.12 0.3,-1.18 0.68,-2.69 0.91,-4.01 0.77,-4.22 -0.23,-5.92 -3.17,-5.76 -2.95,0.17 -5.34,1.82 -7.35,4.08 -1.23,1.37 -1.99,2.68 -2.61,4.21 -0.44,1.06 -0.25,1.69 0.19,1.81 0.87,0.24 1.02,-1.35 2.82,-3.77 1.35,-1.81 2.16,-2.33 2.78,-2.18 0.63,0.16 0.46,1.13 -1.02,7.18 -1.17,4.75 -1.52,6.29 -2.36,9.53 -0.63,2.43 -0.96,3.7 -1.24,5.46 -0.41,2.67 1.6,2.72 4.07,1.93 2.13,-0.68 2.59,-1.74 3.26,-3.95 0.39,-1.3 1.22,-4.46 1.96,-7.4 2.45,-5.28 6.17,-9.36 7.15,-10.51 1.38,-1.6 2.64,-1.47 2.52,-0.67 -0.16,1.05 -0.4,2.11 -1.42,6.12 -0.51,2.03 -1.21,5.16 -2.15,9.25 -0.6,2.61 -0.82,3.87 -1.06,5.25 -0.48,2.81 2.35,2.64 4.64,1.78 1.67,-0.62 2.34,-1.44 3.01,-5.09 0.48,-2.6 1.34,-6.29 2.05,-9.26 0.69,-1.58 1.68,-3.6 2.88,-5.21 1.85,-2.48 3.15,-3.81 3.98,-4.28 1.26,-0.73 1.93,0.15 1.51,1.96 -1.23,5.18 -1.83,6.35 -3.31,12.62 -1.25,5.31 0.08,11.43 1.04,13.46 1.03,2.19 2.5,3.46 3.6,4.08 1.06,0.58 2.48,-0.17 1.54,-1.32 -1.83,-2.25 -1.54,-6.44 -0.54,-12.32 0.55,-3.29 2.13,-9.57 4.17,-15.45 0.67,-1.92 1.06,-3.72 0.56,-5.5 -0.4,-1.4 -2.36,-2.23 -4.16,-2.06z"/>
   <path class="fil3" d="M250.35 81.79c0.83,-0.89 2.26,-1.42 2.55,-0.3 0.31,1.21 0.07,5.04 -0.98,7.29 -1.05,2.23 -2.56,4.71 -5.35,5.22 -0.74,0.13 -1.47,0.16 -2.12,0.15 0.33,-1.64 0.81,-3.37 1.49,-5.09 1.13,-2.82 2.82,-5.56 4.41,-7.27zm-4.21 14.25c3.97,0.2 7.31,-1.85 9.82,-4.63 2.52,-2.79 3.18,-6.86 2.6,-9.22 -0.54,-2.11 -1.89,-4.23 -6.41,-3.96 -3,0.18 -6.13,1.53 -9.19,4.31 -3.67,3.34 -6.54,8.12 -6.54,15.41 0,4.17 1.88,8.64 5.82,9.64 3.63,0.92 7.11,0.35 10.33,-3.14 2.29,-2.48 3.09,-4.22 3.9,-5.98 1.02,-2.2 1.1,-3.45 0.28,-3.45 -0.83,0 -0.81,0.83 -1.91,2.75 -1.1,1.92 -1.89,2.99 -3.32,4.66 -1.87,2.2 -3.65,2.94 -5.12,2.32 -1.95,-0.81 -2.46,-3.29 -2.5,-4.79 -0.03,-1.2 0.05,-2.59 0.26,-4.08 0.57,0.06 1.23,0.12 1.98,0.16z"/>
   <path class="fil3" d="M31.51 87.22c-0.79,4.47 -2.67,8.68 -3.71,10.82 -1.18,2.45 -2.32,3.94 -3.44,5.34 -1.33,1.66 -2.63,1.72 -3.86,0.74 -0.19,-0.15 -0.36,-0.36 -0.52,-0.58 0.85,-3.2 1.66,-6.49 2.43,-9.73 0.02,-0.09 0.04,-0.18 0.06,-0.26 0.55,-2.33 1.07,-4.31 1.58,-6 0.07,-0.3 0.14,-0.61 0.22,-0.92 0.1,-0.15 0.2,-0.3 0.29,-0.42 1.83,-2.53 3.98,-4.66 5.69,-4.48 1.24,0.13 1.87,2.03 1.26,5.49zm-18.97 13.61c-1.09,1.28 -2.27,2.42 -3.23,2.52 -1.64,0.18 -2.04,-1.49 -2.07,-2.98 -0.08,-2.9 0.72,-6.85 2.3,-10.84 1.59,-3.98 3.73,-8.86 6.82,-8.69 0.97,0.06 1.58,0.48 1.96,1.03 -0.92,3.47 -1.33,5.42 -1.98,8.42 -0.29,1.34 -0.62,2.9 -1.07,4.9 -0.16,0.74 -0.33,1.45 -0.5,2.14 -0.61,1.21 -1.36,2.49 -2.23,3.5zm22.46 -22.73c-2.24,-0.46 -5.8,0.23 -8.43,2.86 -0.42,0.41 -0.85,0.91 -1.29,1.44 0.22,-0.9 0.43,-1.8 0.64,-2.69 0.19,-0.82 0.38,-1.57 0.57,-2.31 1.78,-7 3.27,-10.36 4.81,-11.83 1.98,-1.89 3,-1.01 3.31,-1.95 0.32,-0.93 -1.03,-1.19 -2.43,-0.79 -3.33,0.95 -9.39,2.89 -12.32,13.35 -0.37,1.35 -0.7,2.52 -0.98,3.57 -0.6,-0.84 -1.77,-1.65 -4.05,-1.65 -3,0 -5.27,1.28 -7.69,3.74 -3.46,3.52 -7.14,9.97 -7.14,17.23 0,4.15 1.8,8.08 5.85,8.08 3.11,0 5.39,-2.16 7.45,-5.09 0.1,-0.13 0.19,-0.26 0.28,-0.4 -0.17,0.54 -0.33,1.07 -0.5,1.57 -0.33,1.55 -0.71,3.33 -1.26,5.79 -0.66,2.97 -1.36,5.48 -2.06,7.66 -1.3,4.01 -2.26,6.12 -3.37,8.45 -0.65,1.35 -1.92,2.91 -3.47,3.9 -1.41,0.91 -0.52,2.39 0.99,1.86 2.65,-0.93 8.13,-4.8 11.52,-13.12 1.46,-3.59 2.79,-7.85 4.04,-12.35 0.22,0.24 0.46,0.47 0.72,0.63 2.02,1.27 5.87,1.13 9.35,-1.81 3.48,-2.93 6.91,-8.23 8.48,-16.49 1.15,-6.1 -0.78,-9.19 -3.02,-9.65z"/>
   <path class="fil3" d="M161.08 101.41c-1.07,2.14 -2.08,2.86 -3.45,2.28 -1.11,-0.48 -1.19,-3.06 -0.55,-6.45 0.33,-1.81 0.52,-3.06 0.82,-4.36 1.1,-4.76 2.5,-9.91 2.89,-11.47 0.18,-0.72 0.75,-2.7 -0.47,-2.77 -5.39,-0.29 -13.08,0.02 -17.33,4.28 -0.72,0.72 0.21,1.88 1.2,1.16 3.04,-2.24 6.26,-2.92 9,-3.03 -3.75,3.67 -7.09,12.52 -9.22,16.61 -1.07,2.05 -2.89,5.74 -5.51,7.1l0.37 -2.37c0,0 -1.49,-2.91 -4.59,-1.41 -1.25,0.6 -2.31,2.47 -1.19,4.7 0.88,1.79 4.43,2.26 6.18,1.46 2.09,-0.97 4.74,-3.71 6.68,-8.12 2.09,-4.74 5.42,-12.56 7.59,-15.95 1.85,-2.89 1.48,-2.02 1.14,-1.43 -0.23,0.41 -2.55,9.22 -3.24,11.83 -1.19,4.54 -1.59,8.72 -0.22,11.42 1.59,3.12 6.21,3.46 8.48,1.29 0.01,0 0.02,0 0.03,-0.01 1.33,-1.06 2.23,-2.93 2.66,-4.19 0.32,-0.93 -0.9,-1.3 -1.27,-0.57z"/>
   <path class="fil3" d="M55.2 96.04c-0.69,1.57 -1.68,3.5 -2.9,4.93 -1.1,1.27 -2.28,2.42 -3.24,2.53 -1.65,0.17 -2.05,-1.5 -2.09,-3 -0.08,-2.91 0.73,-6.87 2.32,-10.87 1.59,-4 3.74,-8.9 6.84,-8.72 1.41,0.07 2.05,0.9 2.33,1.8 -1.03,4.01 -2.18,8.66 -3.26,13.33zm48.97 5.37c-1.07,2.14 -2.08,2.86 -3.46,2.28 -1.1,-0.48 -1.18,-3.06 -0.55,-6.45 0.34,-1.81 0.53,-3.06 0.83,-4.36 0.52,-2.28 1.12,-4.64 1.64,-6.66 0.77,-2.61 1.51,-4.81 1.89,-5.61 0.56,-1.18 -0.32,-1.66 -1.28,-1.71 -1.03,-0.04 -3.67,0 -5.31,0.86 -1.99,1.05 -2.74,1.87 -7.38,11.17 -2.58,5.19 -3.58,7.26 -3.58,7.26 0,0 2.18,-6.95 3.29,-10.78 1.11,-3.83 2,-5.68 2.25,-6.62 0.26,-0.93 0.75,-2.12 -0.5,-2.1 -5.37,-0.34 -13.06,-0.12 -17.53,4.23 -0.92,0.89 0.34,1.81 1.02,1.29 2.98,-2.31 6.11,-3.05 9.83,-3.29 -4.39,2.24 -8.28,13.1 -10.7,17.74 -1.04,2 -2.3,4.4 -5.17,6.04 -1.2,0.54 -1.63,-0.27 -1.63,-0.27l0.75 -1.71c0,0 -1.18,-3.18 -3.93,-1.17 -0.35,0.26 -0.95,1.12 -1.08,1.45 -1.23,1.24 -2.62,1.8 -3.08,0.54 -0.35,-0.95 0.42,-3.55 0.68,-4.66 0.75,-3.3 2.66,-10.22 4.42,-16.28 0.77,-2.65 1.75,-4.35 -1.3,-4.1 -2.37,0.2 -4.49,0.38 -5.21,2.07 -0.4,-1.02 -1.49,-2.42 -4.49,-2.42 -3,0 -5.29,1.29 -7.72,3.76 -3.47,3.53 -7.16,10 -7.16,17.29 0,4.17 1.8,8.11 5.87,8.11 3.13,0 5.41,-2.17 7.48,-5.11 0.43,-0.6 0.83,-1.26 1.2,-1.9 -0.95,5.77 1.68,7.28 4.29,7.28 1.47,0 3.32,-0.7 5.07,-2.23 0.05,0.14 0.09,0.28 0.16,0.42 0.74,1.62 2.15,1.87 4,1.87 1.91,0 5.52,-1.72 8.19,-6.65 2.45,-4.53 5.98,-13.53 8.15,-16.91 0.58,-0.9 1.73,-1.75 2.22,-2.3 -0.13,0.35 -0.55,1.34 -0.69,1.77 -1.2,3.58 -4.34,13.33 -5.62,17.42 -1.28,4.08 -1.15,3.69 -1.57,5.06 -0.43,1.36 0.3,1.89 2,1.55 1.71,-0.34 5.01,-1.97 7.23,-6.65 2.21,-4.68 6.54,-14.47 8.71,-17.86 0.8,-1.24 1.25,-1.6 1.49,-1.56 -0.12,0.23 -0.23,0.47 -0.35,0.71 -0.63,2.06 -2.45,8.99 -3.05,11.25 -1.19,4.54 -1.59,8.72 -0.22,11.42 1.59,3.12 6.21,3.46 8.48,1.29 0.01,0 0.02,0 0.02,-0.01 1.34,-1.06 2.24,-2.93 2.67,-4.19 0.31,-0.93 -0.91,-1.3 -1.27,-0.57z"/>
  </g>
 </g>
</svg>
