<?xml version="1.0" encoding="UTF-8"?>
<!DOCTYPE svg PUBLIC "-//W3C//DTD SVG 1.1//EN" "http://www.w3.org/Graphics/SVG/1.1/DTD/svg11.dtd">
<!-- Creator: CorelDRAW 2018 (64-Bit) -->
<svg xmlns="http://www.w3.org/2000/svg" xml:space="preserve" width="50px" height="50px" version="1.1" style="shape-rendering:geometricPrecision; text-rendering:geometricPrecision; image-rendering:optimizeQuality; fill-rule:evenodd; clip-rule:evenodd"
viewBox="0 0 50 50"
 xmlns:xlink="http://www.w3.org/1999/xlink">
 <defs>
  <style type="text/css">
   <![CDATA[
    .fil2 {fill:#EB001B}
    .fil3 {fill:#F79E1B}
    .fil1 {fill:#FF5F00}
    .fil0 {fill:black;fill-opacity:0.121569}
   ]]>
  </style>
 </defs>
 <g id="mastercard">
  <metadata id="CorelCorpID_0Corel-Layer"/>
  <g id="_2328813036144">
   <path class="fil0" d="M25 50c13.81,0 25,-11.19 25,-25 0,-13.81 -11.19,-25 -25,-25 -13.81,0 -25,11.19 -25,25 0,13.81 11.19,25 25,25z"/>
   <g>
    <rect class="fil1" x="20.57" y="17.43" width="8.9" height="15.99"/>
    <path class="fil2" d="M21.1 25.42c0,-3.25 1.53,-6.13 3.87,-7.99 -1.72,-1.36 -3.9,-2.18 -6.27,-2.18 -5.62,0 -10.17,4.55 -10.17,10.17 0,5.63 4.55,10.17 10.17,10.17 2.37,0 4.55,-0.82 6.27,-2.17 -2.34,-1.84 -3.87,-4.75 -3.87,-8l0 0z"/>
    <path class="fil3" d="M41.44 25.42c0,5.63 -4.55,10.17 -10.17,10.17 -2.37,0 -4.55,-0.82 -6.27,-2.17 2.37,-1.87 3.87,-4.75 3.87,-8 0,-3.25 -1.53,-6.13 -3.87,-7.99 1.72,-1.36 3.9,-2.18 6.27,-2.18 5.62,0 10.17,4.58 10.17,10.17l0 0z"/>
   </g>
  </g>
 </g>
</svg>
