<?xml version="1.0" encoding="UTF-8"?>
<!DOCTYPE svg PUBLIC "-//W3C//DTD SVG 1.1//EN" "http://www.w3.org/Graphics/SVG/1.1/DTD/svg11.dtd">
<!-- Creator: CorelDRAW 2018 (64-Bit) -->
<svg xmlns="http://www.w3.org/2000/svg" xml:space="preserve" width="50px" height="50px" version="1.1" style="shape-rendering:geometricPrecision; text-rendering:geometricPrecision; image-rendering:optimizeQuality; fill-rule:evenodd; clip-rule:evenodd"
viewBox="0 0 50 50"
 xmlns:xlink="http://www.w3.org/1999/xlink">
 <defs>
  <style type="text/css">
   <![CDATA[
    .fil1 {fill:white}
    .fil0 {fill:#26A24C;fill-rule:nonzero}
   ]]>
  </style>
 </defs>
 <g id="mir">
  <metadata id="CorelCorpID_0Corel-Layer"/>
  <g id="_2328894777280">
   <path class="fil0" d="M25 50c13.81,0 25,-11.19 25,-25 0,-13.81 -11.19,-25 -25,-25 -13.81,0 -25,11.19 -25,25 0,13.81 11.19,25 25,25z"/>
   <g>
    <path class="fil1" d="M27.92 21.14l-2.41 5.22 -0.24 0 0 -6.36 -3.43 0 0 10.77 2.91 0c0.76,0 1.46,-0.45 1.78,-1.14l2.41 -5.22 0.24 0 0 6.36 3.43 0 0 -10.77 -2.91 0c-0.76,0 -1.46,0.44 -1.78,1.14l0 0zm-12.85 0.28l-1.43 4.94 -0.24 0 -1.43 -4.94c-0.24,-0.84 -1.01,-1.42 -1.88,-1.42l-3.42 0 0 10.77 3.42 0 0 -6.36 0.25 0 1.96 6.36 2.44 0 1.96 -6.36 0.25 0 0 6.36 3.42 0 0 -10.77 -3.42 0c-0.87,0 -1.64,0.58 -1.88,1.42l0 0zm19.01 3.47l0 5.88 3.42 0 0 -3.43 3.67 0c1.6,0 2.96,-1.02 3.46,-2.45l-10.55 0 0 0zm7.09 -4.89l-7.58 0c0.46,2.51 2.65,4.41 5.29,4.41l5.89 0c0.05,-0.24 0.08,-0.49 0.08,-0.74 0,-2.03 -1.65,-3.67 -3.68,-3.67z"/>
   </g>
  </g>
 </g>
</svg>
