<?xml version="1.0" encoding="UTF-8"?>
<!DOCTYPE svg PUBLIC "-//W3C//DTD SVG 1.1//EN" "http://www.w3.org/Graphics/SVG/1.1/DTD/svg11.dtd">
<!-- Creator: CorelDRAW 2018 (64-Bit) -->
<svg xmlns="http://www.w3.org/2000/svg" xml:space="preserve" width="43px" height="35px" version="1.1" style="shape-rendering:geometricPrecision; text-rendering:geometricPrecision; image-rendering:optimizeQuality; fill-rule:evenodd; clip-rule:evenodd"
viewBox="0 0 43 35"
 xmlns:xlink="http://www.w3.org/1999/xlink">
 <defs>
  <style type="text/css">
   <![CDATA[
    .fil0 {fill:#70B4A7}
    .fil1 {fill:#F7A93B}
   ]]>
  </style>
 </defs>
 <g id="Слой_x0020_1">
  <metadata id="CorelCorpID_0Corel-Layer"/>
  <g id="_1636509088112">
   <path class="fil0" d="M20.57 26.31c2.23,-0.79 4.55,-0.89 5.23,-2.98l0 -2.91c-0.64,-0.33 -2.49,-2.56 -2.68,-4.31 -0.12,-0.41 -0.21,-1.89 -0.21,-2.22 0,-1.82 0.03,-5.59 -1.09,-8.53 0.39,-1.98 1.41,-3.65 3.6,-3.87 0.59,-0.99 2.09,-1.49 4.05,-1.49 7.81,0.14 8.61,5.65 7.04,11.98 0.3,0.18 0.81,0.74 0.68,1.75 -0.23,1.87 -1.03,2.34 -1.54,2.38 -0.19,1.75 -2.04,3.98 -2.68,4.31l0 2.91c1.43,4.38 10.03,0 10.03,11.67l-17.2 0c0,-5.17 -2.85,-7.4 -5.23,-8.69z"/>
   <g>
    <path class="fil1" d="M22.93 35c0,-7.29 -7.16,-5.83 -8.6,-9.78l0 -1.86c5.19,0 6.63,-2.18 6.63,-2.18 -2.71,-2.29 2.42,-18.26 -6.81,-18.26 0,0 -1.25,-1.46 -2.86,-1.46 -11.29,0 -6.2,17.34 -9.12,19.78 0,0 1.21,2.1 6.43,2.1l0 1.88c-1.43,3.95 -8.6,2.49 -8.6,9.78l22.93 0z"/>
   </g>
  </g>
 </g>
</svg>
