<?xml version="1.0" encoding="UTF-8"?>
<!DOCTYPE svg PUBLIC "-//W3C//DTD SVG 1.1//EN" "http://www.w3.org/Graphics/SVG/1.1/DTD/svg11.dtd">
<!-- Creator: CorelDRAW 2018 (64-Bit) -->
<svg xmlns="http://www.w3.org/2000/svg" xml:space="preserve" width="190px" height="217px" version="1.1" style="shape-rendering:geometricPrecision; text-rendering:geometricPrecision; image-rendering:optimizeQuality; fill-rule:evenodd; clip-rule:evenodd"
viewBox="0 0 190 217"
 xmlns:xlink="http://www.w3.org/1999/xlink">
 <defs>
  <style type="text/css">
   <![CDATA[
    .fil6 {fill:#FEFEFE;fill-rule:nonzero}
    .fil0 {fill:#FCD5A6;fill-rule:nonzero}
    .fil1 {fill:#F7A93B;fill-rule:nonzero}
    .fil5 {fill:#D71C6D;fill-rule:nonzero}
    .fil2 {fill:#E4E9A7;fill-rule:nonzero}
    .fil3 {fill:#C4D985;fill-rule:nonzero}
    .fil4 {fill:#59A8DD;fill-rule:nonzero}
   ]]>
  </style>
 </defs>
 <g id="Слой_x0020_1">
  <metadata id="CorelCorpID_0Corel-Layer"/>
  <g id="_3087458020352">
   <path class="fil0" d="M58.69 204.18l14.11 0 0 6.23c-4.83,-1.74 -9.55,-3.82 -14.11,-6.23zm27.24 0l15.64 0 0 12.46c-5.27,-0.42 -10.5,-1.22 -15.64,-2.39l0 -10.07zm40.63 8.14c0,-1.47 1.19,-2.65 2.66,-2.65 1.47,0 2.66,1.18 2.66,2.65 0,1.46 -1.19,2.65 -2.66,2.65 -1.47,0 -2.66,-1.19 -2.66,-2.65zm-21.55 -8.14l12.51 0 0 12.6c-4.17,0.26 -8.35,0.29 -12.51,0.09l0 -12.69zm15.95 0l16.23 0 0 9.54c-5.37,1.34 -10.79,2.27 -16.23,2.78l0 -12.32zm11.19 -53.72c0,1.61 -1.31,2.92 -2.93,2.92 -1.62,0 -2.93,-1.31 -2.93,-2.92 0,-1.62 1.31,-2.92 2.93,-2.92 1.62,0 2.93,1.3 2.93,2.92zm-5.04 25.56c0,-1.16 0.94,-2.1 2.11,-2.1 1.16,0 2.11,0.94 2.11,2.1 0,1.16 -0.95,2.11 -2.11,2.11 -1.17,0 -2.11,-0.95 -2.11,-2.11zm0 10.61c0,-1.16 0.94,-2.11 2.11,-2.11 1.16,0 2.11,0.95 2.11,2.11 0,1.16 -0.95,2.11 -2.11,2.11 -1.17,0 -2.11,-0.95 -2.11,-2.11zm0.55 10.69c0,-1.17 0.94,-2.11 2.11,-2.11 1.16,0 2.11,0.94 2.11,2.11 0,1.16 -0.95,2.1 -2.11,2.1 -1.17,0 -2.11,-0.94 -2.11,-2.1zm-0.63 -33.99c0,-1.51 1.23,-2.73 2.74,-2.73 1.51,0 2.73,1.22 2.73,2.73 0,1.51 -1.22,2.73 -2.73,2.73 -1.51,0 -2.74,-1.22 -2.74,-2.73zm-76.61 -82.57c0,-2.04 1.66,-3.7 3.71,-3.7 2.04,0 3.71,1.66 3.71,3.7 0,2.05 -1.67,3.7 -3.71,3.7 -2.05,0 -3.71,-1.65 -3.71,-3.7zm0.54 70.62c0,-2.04 1.66,-3.7 3.71,-3.7 2.05,0 3.72,1.66 3.72,3.7 0,2.05 -1.67,3.71 -3.72,3.71 -2.05,0 -3.71,-1.66 -3.71,-3.71zm0.78 -103.51c0,-1.62 1.32,-2.93 2.93,-2.93 1.62,0 2.93,1.31 2.93,2.93 0,1.61 -1.31,2.92 -2.93,2.92 -1.61,0 -2.93,-1.31 -2.93,-2.92zm-0.78 122.22c0,-2.04 1.66,-3.7 3.71,-3.7 2.05,0 3.71,1.66 3.71,3.7 0,2.05 -1.66,3.71 -3.71,3.71 -2.05,0 -3.71,-1.66 -3.71,-3.71zm0 -108c0,-2.04 1.66,-3.7 3.71,-3.7 2.05,0 3.71,1.66 3.71,3.7 0,2.05 -1.66,3.7 -3.71,3.7 -2.05,0 -3.71,-1.65 -3.71,-3.7zm0 72.45c0,-2.04 1.66,-3.7 3.71,-3.7 2.05,0 3.72,1.66 3.72,3.7 0,2.05 -1.67,3.71 -3.72,3.71 -2.05,0 -3.71,-1.66 -3.71,-3.71zm5.83 -112.24c0,1.16 -0.95,2.11 -2.12,2.11 -1.16,0 -2.11,-0.95 -2.11,-2.11 0,-1.16 0.95,-2.11 2.11,-2.11 1.17,0 2.12,0.95 2.12,2.11zm0.54 174.47c0,1.47 -1.19,2.65 -2.66,2.65 -1.46,0 -2.65,-1.18 -2.65,-2.65 0,-1.46 1.19,-2.65 2.65,-2.65 1.47,0 2.66,1.19 2.66,2.65zm0 -99.72c0,1.46 -1.19,2.65 -2.66,2.65 -1.46,0 -2.65,-1.19 -2.65,-2.65 0,-1.47 1.19,-2.65 2.65,-2.65 1.47,0 2.66,1.18 2.66,2.65zm-0.47 -62.06c0,1.51 -1.22,2.73 -2.73,2.73 -1.51,0 -2.74,-1.22 -2.74,-2.73 0,-1.5 1.23,-2.72 2.74,-2.72 1.51,0 2.73,1.22 2.73,2.72zm0.74 88.29c0,1.61 -1.31,2.92 -2.93,2.92 -1.61,0 -2.93,-1.31 -2.93,-2.92 0,-1.61 1.32,-2.92 2.93,-2.92 1.62,0 2.93,1.31 2.93,2.92zm0.04 60.49c0,1.64 -1.33,2.96 -2.97,2.96 -1.64,0 -2.97,-1.32 -2.97,-2.96 0,-1.64 1.33,-2.96 2.97,-2.96 1.64,0 2.97,1.32 2.97,2.96zm-0.55 -75.3c0,1.63 -1.32,2.96 -2.96,2.96 -1.65,0 -2.97,-1.33 -2.97,-2.96 0,-1.64 1.32,-2.97 2.97,-2.97 1.64,0 2.96,1.33 2.96,2.97zm80.1 95.71l-16.23 0 0 -67.09c5.17,4.27 10.71,7.98 16.23,11.18l0 55.91zm-19.67 0l-12.51 0 0 -84.37c3.55,5.29 7.83,10.05 12.51,14.3l0 70.07zm-15.95 0l-15.64 0 0 -204.08c0.7,-0.07 1.39,-0.1 2.06,-0.1l0 0c10.46,0 15.86,7.9 12.17,18.87l0 0c0,0 -19.51,57.97 2.2,96.62 -0.27,-0.48 -0.53,-0.97 -0.79,-1.45l0 90.14zm-28.77 0l-14.12 0c-7.51,-3.97 -14.61,-8.82 -21.12,-14.52l0 -165.55c-2.49,2.17 -4.86,4.44 -7.11,6.8 6.54,-6.85 14.09,-12.96 22.57,-18.12l-0.1 0.07c0.38,0.57 1.02,0.94 1.75,0.94 1.17,0 2.12,-0.95 2.12,-2.11 0,-0.34 -0.09,-0.66 -0.23,-0.95 6.07,-3.37 11.67,-5.7 16.24,-7.3l0 200.74zm0.98 -201.08c0.43,-0.14 0.85,-0.28 1.26,-0.41 -0.41,0.13 -0.83,0.27 -1.26,0.41zm-40.16 182.94c-5.6,-5.42 -10.7,-11.5 -15.17,-18.23 2.64,3.97 5.51,7.72 8.56,11.24l0 -144.37 0 0 0 144.37c2.12,2.44 4.32,4.77 6.61,6.99zm68.9 -70.28c0.32,0.57 0.65,1.14 0.99,1.7 -0.34,-0.56 -0.67,-1.13 -0.99,-1.7zm-101.67 4.87c-1.13,-8.99 -1.13,-18.03 -0.05,-26.92l-0.02 0.15 0 26.2 0.07 0.57zm9.04 -59.3c0.15,-0.34 0.31,-0.68 0.47,-1.02 -0.16,0.34 -0.32,0.68 -0.47,1.02zm1.08 -2.31c0.17,-0.35 0.34,-0.71 0.52,-1.06 -0.18,0.35 -0.35,0.71 -0.52,1.06zm1.16 -2.34c0.22,-0.43 0.45,-0.85 0.67,-1.28 -0.22,0.43 -0.45,0.86 -0.67,1.28zm1.17 -2.22c0.27,-0.5 0.55,-0.99 0.82,-1.49 -0.27,0.5 -0.55,0.99 -0.82,1.49zm1.29 -2.31c0.27,-0.48 0.55,-0.95 0.83,-1.42 -0.28,0.47 -0.56,0.94 -0.83,1.42zm1.43 -2.43c0.29,-0.47 0.59,-0.95 0.89,-1.43 -0.3,0.48 -0.6,0.96 -0.89,1.43zm1.25 -1.99c0.31,-0.5 0.63,-0.99 0.95,-1.48l-0.95 1.48zm1.54 -2.36c0.35,-0.52 0.7,-1.03 1.06,-1.54 -0.36,0.51 -0.71,1.02 -1.06,1.54zm1.34 -1.94c0.48,-0.68 0.96,-1.35 1.45,-2.02 -0.49,0.67 -0.97,1.34 -1.45,2.02zm1.7 -2.35c0.38,-0.51 0.77,-1.02 1.16,-1.52 -0.39,0.5 -0.78,1.01 -1.16,1.52zm1.4 -1.83c0.51,-0.66 1.03,-1.31 1.56,-1.96 -0.53,0.65 -1.05,1.3 -1.56,1.96zm1.85 -2.32c0.41,-0.48 0.81,-0.97 1.23,-1.45l-1.23 1.45zm148.66 126.87c2.64,0.77 4.17,1.14 4.17,1.14l0 0c12.49,2.94 15.83,13.28 7.45,22.97l0 0c0,0 -2.94,3.41 -11.62,9.22l0 -33.33z"/>
   <path class="fil1" d="M165.32 202.38l0 -41.3c3.4,1.19 6.29,2.09 8.44,2.72l0 33.33c-1.77,1.18 -3.77,2.46 -6.03,3.83l0 0c-0.8,0.49 -1.6,0.96 -2.41,1.42z"/>
   <path class="fil1" d="M0.78 120.06l0 -26.2c2.6,-21.64 11.59,-42.35 26.23,-59.18l0 144.37c-3.99,-4.6 -7.65,-9.58 -10.92,-14.95l0 0c-8.47,-13.88 -13.49,-28.9 -15.31,-44.04z"/>
   <path class="fil2" d="M120.96 204.18l-3.44 0 0 -70.07c1.13,1.02 2.27,2.01 3.44,2.98l0 67.09z"/>
   <path class="fil2" d="M105.01 204.18l-3.44 0 0 -90.14c0.61,1.15 1.26,2.3 1.94,3.42l0 0c0.49,0.79 0.99,1.56 1.5,2.33l0 84.39z"/>
   <path class="fil2" d="M27.01 179.05l0 -144.37c3.24,-3.72 6.76,-7.26 10.55,-10.57l0 165.55c-3.72,-3.26 -7.25,-6.8 -10.55,-10.61z"/>
   <path class="fil3" d="M57.09 108.47c0,1.63 -1.32,2.96 -2.96,2.96 -1.65,0 -2.97,-1.33 -2.97,-2.96 0,-1.64 1.32,-2.97 2.97,-2.97 1.64,0 2.96,1.33 2.96,2.97z"/>
   <path class="fil3" d="M57.64 183.77c0,1.64 -1.33,2.96 -2.97,2.96 -1.64,0 -2.97,-1.32 -2.97,-2.96 0,-1.64 1.33,-2.96 2.97,-2.96 1.64,0 2.97,1.32 2.97,2.96z"/>
   <path class="fil4" d="M57.6 123.28c0,1.61 -1.31,2.92 -2.93,2.92 -1.61,0 -2.93,-1.31 -2.93,-2.92 0,-1.61 1.32,-2.92 2.93,-2.92 1.62,0 2.93,1.31 2.93,2.92z"/>
   <path class="fil5" d="M56.86 34.99c0,1.51 -1.22,2.73 -2.73,2.73 -1.51,0 -2.74,-1.22 -2.74,-2.73 0,-1.5 1.23,-2.72 2.74,-2.72 1.51,0 2.73,1.22 2.73,2.72z"/>
   <path class="fil6" d="M57.33 97.05c0,1.46 -1.19,2.65 -2.66,2.65 -1.46,0 -2.65,-1.19 -2.65,-2.65 0,-1.47 1.19,-2.65 2.65,-2.65 1.47,0 2.66,1.18 2.66,2.65z"/>
   <path class="fil6" d="M57.33 196.77c0,1.47 -1.19,2.65 -2.66,2.65 -1.46,0 -2.65,-1.18 -2.65,-2.65 0,-1.46 1.19,-2.65 2.65,-2.65 1.47,0 2.66,1.19 2.66,2.65z"/>
   <path class="fil1" d="M56.79 11.69c0,1.16 -0.95,2.11 -2.12,2.11 -0.73,0 -1.37,-0.37 -1.75,-0.94l0.1 -0.07 0 0c1.2,-0.72 2.38,-1.4 3.54,-2.05 0.14,0.29 0.23,0.61 0.23,0.95z"/>
   <path class="fil4" d="M56.79 22.3c0,1.16 -0.95,2.11 -2.12,2.11 -1.16,0 -2.11,-0.95 -2.11,-2.11 0,-1.16 0.95,-2.11 2.11,-2.11 1.17,0 2.12,0.95 2.12,2.11z"/>
   <path class="fil1" d="M50.96 134.54c0,-2.04 1.66,-3.7 3.71,-3.7 2.05,0 3.72,1.66 3.72,3.7 0,2.05 -1.67,3.71 -3.72,3.71 -2.05,0 -3.71,-1.66 -3.71,-3.71z"/>
   <path class="fil1" d="M50.96 62.09c0,-2.04 1.66,-3.7 3.71,-3.7 2.05,0 3.71,1.66 3.71,3.7 0,2.05 -1.66,3.7 -3.71,3.7 -2.05,0 -3.71,-1.65 -3.71,-3.7z"/>
   <path class="fil4" d="M50.96 170.09c0,-2.04 1.66,-3.7 3.71,-3.7 2.05,0 3.71,1.66 3.71,3.7 0,2.05 -1.66,3.71 -3.71,3.71 -2.05,0 -3.71,-1.66 -3.71,-3.71z"/>
   <path class="fil4" d="M51.74 47.87c0,-1.62 1.32,-2.93 2.93,-2.93 1.62,0 2.93,1.31 2.93,2.93 0,1.61 -1.31,2.92 -2.93,2.92 -1.61,0 -2.93,-1.31 -2.93,-2.92z"/>
   <path class="fil5" d="M50.96 151.38c0,-2.04 1.66,-3.7 3.71,-3.7 2.05,0 3.72,1.66 3.72,3.7 0,2.05 -1.67,3.71 -3.72,3.71 -2.05,0 -3.71,-1.66 -3.71,-3.71z"/>
   <path class="fil5" d="M50.42 80.76c0,-2.04 1.66,-3.7 3.71,-3.7 2.04,0 3.71,1.66 3.71,3.7 0,2.05 -1.67,3.7 -3.71,3.7 -2.05,0 -3.71,-1.65 -3.71,-3.7z"/>
   <path class="fil5" d="M127.03 163.33c0,-1.51 1.23,-2.73 2.74,-2.73 1.51,0 2.73,1.22 2.73,2.73 0,1.51 -1.22,2.73 -2.73,2.73 -1.51,0 -2.74,-1.22 -2.74,-2.73z"/>
   <path class="fil4" d="M127.66 197.32c0,-1.17 0.94,-2.11 2.11,-2.11 1.16,0 2.11,0.94 2.11,2.11 0,1.16 -0.95,2.1 -2.11,2.1 -1.17,0 -2.11,-0.94 -2.11,-2.1z"/>
   <path class="fil1" d="M127.11 186.63c0,-1.16 0.94,-2.11 2.11,-2.11 1.16,0 2.11,0.95 2.11,2.11 0,1.16 -0.95,2.11 -2.11,2.11 -1.17,0 -2.11,-0.95 -2.11,-2.11z"/>
   <path class="fil4" d="M127.11 176.02c0,-1.16 0.94,-2.1 2.11,-2.1 1.16,0 2.11,0.94 2.11,2.1 0,1.16 -0.95,2.11 -2.11,2.11 -1.17,0 -2.11,-0.95 -2.11,-2.11z"/>
   <path class="fil4" d="M132.15 150.46c0,1.61 -1.31,2.92 -2.93,2.92 -1.62,0 -2.93,-1.31 -2.93,-2.92 0,-1.62 1.31,-2.92 2.93,-2.92 1.62,0 2.93,1.3 2.93,2.92z"/>
   <path class="fil2" d="M117.52 216.78l0 -12.6 3.44 0 0 12.33c-1.14,0.11 -2.29,0.19 -3.44,0.27z"/>
   <path class="fil2" d="M101.57 216.64l0 -12.46 3.44 0 0 12.69c-1.15,-0.05 -2.29,-0.13 -3.44,-0.23z"/>
   <path class="fil6" d="M126.56 212.32c0,-1.47 1.19,-2.65 2.66,-2.65 1.47,0 2.66,1.18 2.66,2.65 0,1.46 -1.19,2.65 -2.66,2.65 -1.47,0 -2.66,-1.19 -2.66,-2.65z"/>
   <path class="fil5" d="M85.93 204.18l-13.13 0 0 -200.74c7.11,-2.48 11.72,-3.17 11.72,-3.17l0 0c0.48,-0.07 0.95,-0.13 1.41,-0.17l0 204.08zm-13.13 6.23l0 -6.23 13.13 0 0 10.07c-4.45,-1.01 -8.83,-2.29 -13.13,-3.84z"/>
   <path class="fil4" d="M162.05 204.18l-24.86 0 0 -55.91c10.28,5.95 20.5,10.13 28.13,12.81l0 41.3c-1.08,0.62 -2.18,1.22 -3.27,1.8zm-24.86 9.55l0 -9.55 24.85 0c-8.03,4.25 -16.37,7.42 -24.85,9.55z"/>
  </g>
 </g>
</svg>
