<?xml version="1.0" encoding="UTF-8"?>
<!DOCTYPE svg PUBLIC "-//W3C//DTD SVG 1.1//EN" "http://www.w3.org/Graphics/SVG/1.1/DTD/svg11.dtd">
<!-- Creator: CorelDRAW 2018 (64-Bit) -->
<svg xmlns="http://www.w3.org/2000/svg" xml:space="preserve" width="100px" height="100px" version="1.1" style="shape-rendering:geometricPrecision; text-rendering:geometricPrecision; image-rendering:optimizeQuality; fill-rule:evenodd; clip-rule:evenodd"
viewBox="0 0 100 100"
 xmlns:xlink="http://www.w3.org/1999/xlink">
 <defs>
  <style type="text/css">
   <![CDATA[
    .fil0 {fill:#70B4A7;fill-rule:nonzero}
   ]]>
  </style>
 </defs>
 <g id="Слой_x0020_1">
  <metadata id="CorelCorpID_0Corel-Layer"/>
  <path class="fil0" d="M100 50c0,6.13 -10.41,10.15 -12.62,15.48 -2.29,5.53 2.14,15.7 -2.02,19.87 -4.17,4.17 -14.35,-0.26 -19.88,2.03 -5.33,2.22 -9.35,12.62 -15.48,12.62 -6.13,0 -10.15,-10.4 -15.48,-12.62 -5.53,-2.29 -15.71,2.14 -19.88,-2.03 -4.16,-4.17 0.27,-14.34 -2.02,-19.87 -2.21,-5.33 -12.62,-9.35 -12.62,-15.48 0,-6.13 10.41,-10.15 12.62,-15.48 2.29,-5.53 -2.14,-15.71 2.03,-19.87 4.16,-4.17 14.34,0.26 19.87,-2.03 5.32,-2.21 9.33,-12.57 15.44,-12.62l0.08 0c6.11,0.05 10.12,10.41 15.44,12.62 5.53,2.29 15.71,-2.14 19.88,2.03 4.16,4.16 -0.27,14.34 2.02,19.87 2.21,5.33 12.62,9.35 12.62,15.48z"/>
 </g>
</svg>
