<?xml version="1.0" encoding="UTF-8"?>
<!DOCTYPE svg PUBLIC "-//W3C//DTD SVG 1.1//EN" "http://www.w3.org/Graphics/SVG/1.1/DTD/svg11.dtd">
<!-- Creator: CorelDRAW 2018 (64-Bit) -->
<svg xmlns="http://www.w3.org/2000/svg" xml:space="preserve" width="52px" height="50px" version="1.1" style="shape-rendering:geometricPrecision; text-rendering:geometricPrecision; image-rendering:optimizeQuality; fill-rule:evenodd; clip-rule:evenodd"
viewBox="0 0 52 50"
 xmlns:xlink="http://www.w3.org/1999/xlink">
 <defs>
  <style type="text/css">
   <![CDATA[
    .fil0 {fill:#EC6A40;fill-rule:nonzero}
   ]]>
  </style>
 </defs>
 <g id="Слой_x0020_1">
  <metadata id="CorelCorpID_0Corel-Layer"/>
  <path class="fil0" d="M23.05 2.78c1.62,-3.71 4.28,-3.71 5.9,0l2.65 6.06c1.62,3.7 6.22,7.07 10.22,7.48l6.55 0.66c4,0.41 4.82,2.95 1.82,5.65l-4.9 4.42c-3,2.69 -4.76,8.14 -3.91,12.09l1.4 6.48c0.85,3.95 -1.3,5.52 -4.78,3.49l-5.68 -3.34c-3.48,-2.03 -9.16,-2.03 -12.64,0l-5.69 3.34c-3.47,2.03 -5.62,0.46 -4.77,-3.49l1.4 -6.48c0.85,-3.95 -0.91,-9.4 -3.91,-12.09l-4.9 -4.42c-3,-2.7 -2.18,-5.24 1.82,-5.65l6.55 -0.66c4,-0.41 8.6,-3.78 10.22,-7.48l2.65 -6.06z"/>
 </g>
</svg>
