<?xml version="1.0" encoding="UTF-8"?>
<!DOCTYPE svg PUBLIC "-//W3C//DTD SVG 1.1//EN" "http://www.w3.org/Graphics/SVG/1.1/DTD/svg11.dtd">
<!-- Creator: CorelDRAW 2018 (64-Bit) -->
<svg xmlns="http://www.w3.org/2000/svg" xml:space="preserve" width="50px" height="50px" version="1.1" style="shape-rendering:geometricPrecision; text-rendering:geometricPrecision; image-rendering:optimizeQuality; fill-rule:evenodd; clip-rule:evenodd"
viewBox="0 0 50 50"
 xmlns:xlink="http://www.w3.org/1999/xlink">
 <defs>
  <style type="text/css">
   <![CDATA[
    .fil1 {fill:white}
    .fil0 {fill:#182E66;fill-rule:nonzero}
   ]]>
  </style>
 </defs>
 <g id="visa">
  <metadata id="CorelCorpID_0Corel-Layer"/>
  <g id="_2329000316976">
   <path class="fil0" d="M25 50c13.81,0 25,-11.19 25,-25 0,-13.81 -11.19,-25 -25,-25 -13.81,0 -25,11.19 -25,25 0,13.81 11.19,25 25,25z"/>
   <path class="fil1" d="M23.89 19.43l-2.55 11.92 -3.08 0 2.55 -11.92 3.08 0zm12.98 7.69l1.62 -4.47 0.93 4.47 -2.55 0zm3.44 4.23l2.85 0 -2.49 -11.92 -2.63 0c-0.6,0 -1.09,0.34 -1.32,0.87l-4.62 11.05 3.23 0 0.65 -1.78 3.95 0 0.38 1.78 0 0zm-8.05 -3.9c0.01,-3.14 -4.35,-3.31 -4.32,-4.72 0.01,-0.43 0.41,-0.88 1.31,-1 0.44,-0.06 1.65,-0.1 3.04,0.54l0.54 -2.53c-0.74,-0.27 -1.7,-0.53 -2.89,-0.53 -3.04,0 -5.19,1.62 -5.21,3.94 -0.02,1.72 1.53,2.67 2.7,3.24 1.2,0.59 1.61,0.96 1.6,1.48 -0.01,0.8 -0.96,1.16 -1.84,1.17 -1.55,0.03 -2.45,-0.42 -3.17,-0.75l-0.56 2.61c0.72,0.33 2.05,0.62 3.43,0.63 3.24,0 5.36,-1.6 5.37,-4.08l0 0 0 0zm-12.77 -8.02l-5 11.92 -3.26 0 -2.46 -9.52c-0.15,-0.58 -0.28,-0.8 -0.73,-1.04 -0.74,-0.4 -1.96,-0.78 -3.04,-1.02l0.07 -0.34 5.25 0c0.67,0 1.27,0.44 1.42,1.21l1.3 6.9 3.21 -8.11 3.24 0 0 0 0 0z"/>
  </g>
 </g>
</svg>
