<?xml version="1.0" encoding="UTF-8"?>
<!DOCTYPE svg PUBLIC "-//W3C//DTD SVG 1.1//EN" "http://www.w3.org/Graphics/SVG/1.1/DTD/svg11.dtd">
<!-- Creator: CorelDRAW 2018 (64-Bit) -->
<svg xmlns="http://www.w3.org/2000/svg" xml:space="preserve" width="36px" height="36px" version="1.1" style="shape-rendering:geometricPrecision; text-rendering:geometricPrecision; image-rendering:optimizeQuality; fill-rule:evenodd; clip-rule:evenodd"
viewBox="0 0 36 36"
 xmlns:xlink="http://www.w3.org/1999/xlink"
 enable-background="new 0 0 100 100">
 <defs>
  <style type="text/css">
   <![CDATA[
    .fil0 {fill:#59361B}
   ]]>
  </style>
 </defs>
 <g id="Слой_x0020_1">
  <metadata id="CorelCorpID_0Corel-Layer"/>
  <path class="fil0" d="M18 0c-9.94,0 -18,8.06 -18,18 0,9.94 8.06,18 18,18 9.94,0 18,-8.06 18,-18 0,-9.94 -8.06,-18 -18,-18zm9.67 24.83c-0.76,0.48 -3.89,0.62 -4.64,0.07 -0.42,-0.3 -0.79,-0.67 -1.15,-1.03 -0.26,-0.25 -0.54,-0.37 -0.76,-0.65 -0.18,-0.22 -0.3,-0.48 -0.48,-0.7 -0.32,-0.37 -0.8,-0.68 -1.18,-0.23 -0.58,0.67 0.09,2.01 -0.68,2.51 -0.26,0.17 -0.52,0.22 -0.84,0.2l-0.71 0.03c-0.42,0.01 -1.08,0.01 -1.56,-0.07 -0.53,-0.1 -0.97,-0.39 -1.45,-0.6 -0.91,-0.41 -1.78,-0.96 -2.44,-1.72 -1.8,-2.08 -4.21,-4.94 -5.15,-7.55 -0.2,-0.54 -0.71,-1.6 -0.22,-2.06 0.66,-0.48 3.88,-0.61 4.39,0.13 0.2,0.3 0.33,0.73 0.47,1.07 0.18,0.43 0.28,0.83 0.56,1.2 0.25,0.34 0.44,0.67 0.63,1.04 0.21,0.41 0.42,0.8 0.68,1.18 0.18,0.25 0.65,0.76 0.95,0.8 0.73,0.1 0.68,-1.67 0.63,-2.11 -0.05,-0.41 -0.06,-0.85 -0.05,-1.28 0.01,-0.36 0.04,-0.87 -0.17,-1.16 -0.35,-0.48 -1.12,-0.12 -1.18,-0.76 0.12,-0.19 0.1,-0.35 0.95,-0.63 0.68,-0.22 1.11,-0.22 1.55,-0.18 0.91,0.07 1.87,-0.17 2.74,0.12 0.84,0.28 0.71,1.47 0.68,2.18 -0.04,0.97 0,1.91 0,2.9 0,0.45 -0.02,0.88 0.53,0.85 0.51,-0.04 0.56,-0.47 0.8,-0.82 0.34,-0.5 0.66,-1 1,-1.5 0.47,-0.67 0.61,-1.42 1.05,-2.1 0.16,-0.25 0.29,-0.77 0.54,-0.96 0.18,-0.15 0.53,-0.07 0.75,-0.07l0.53 0c0.4,0 0.81,0 1.23,0.01 0.59,0.02 1.26,-0.11 1.86,-0.03 2.55,0.36 -3.22,5.82 -2.92,6.8 0.21,0.67 1.53,1.43 2,1.98 0.63,0.73 2.57,2.2 1.06,3.14z"/>
 </g>
</svg>
