<?xml version="1.0" encoding="UTF-8"?>
<!DOCTYPE svg PUBLIC "-//W3C//DTD SVG 1.1//EN" "http://www.w3.org/Graphics/SVG/1.1/DTD/svg11.dtd">
<!-- Creator: CorelDRAW 2018 (64-Bit) -->
<svg xmlns="http://www.w3.org/2000/svg" xml:space="preserve" width="229px" height="219px" version="1.1" style="shape-rendering:geometricPrecision; text-rendering:geometricPrecision; image-rendering:optimizeQuality; fill-rule:evenodd; clip-rule:evenodd"
viewBox="0 0 229 219"
 xmlns:xlink="http://www.w3.org/1999/xlink">
 <defs>
  <style type="text/css">
   <![CDATA[
    .fil3 {fill:#FADAD2;fill-rule:nonzero}
    .fil0 {fill:#F7A93B;fill-rule:nonzero}
    .fil4 {fill:#EC6A40;fill-rule:nonzero}
    .fil2 {fill:#91442E;fill-rule:nonzero}
    .fil1 {fill:#B62C2C;fill-rule:nonzero}
   ]]>
  </style>
 </defs>
 <g id="Слой_x0020_1">
  <metadata id="CorelCorpID_0Corel-Layer"/>
  <g id="_3088259994784">
   <path class="fil0" d="M101.52 12.17l-11.69 26.55c-7.14,16.22 -27.4,30.97 -45.02,32.74l0 0 -28.83 2.93c-17.62,1.79 -21.23,12.92 -8.02,24.73l0 0 21.6 19.34c13.21,11.81 20.94,35.66 17.2,52.99l0 0 -6.13 28.36c-3.75,17.33 5.71,24.2 21,15.28l0 0 25.05 -14.6c15.3,-8.93 40.34,-8.93 55.65,0l0 0 25.03 14.6c15.3,8.92 24.76,2.05 21.01,-15.28l0 0 -6.13 -28.36c-3.75,-17.33 3.99,-41.18 17.2,-52.99l0 0 21.61 -19.34c13.2,-11.81 9.59,-22.94 -8.03,-24.73l0 0 -28.83 -2.93c-17.63,-1.77 -37.89,-16.52 -45.02,-32.74l0 0 -11.69 -26.55c-3.57,-8.11 -8.27,-12.17 -12.98,-12.17l0 0c-4.7,0 -9.41,4.06 -12.98,12.17l0 0z"/>
   <path class="fil1" d="M6.9 76.61c-0.03,0.28 -0.05,0.56 -0.05,0.84 0,3.53 2.86,6.39 6.38,6.39 2.26,0 4.25,-1.18 5.38,-2.96 0.77,1.21 1.94,2.17 3.41,2.65 3.36,1.09 6.95,-0.75 8.04,-4.1 0.7,-2.16 0.19,-4.41 -1.15,-6.05 0.4,-0.1 0.79,-0.24 1.16,-0.42l-14.09 1.43c-3.63,0.37 -6.66,1.14 -9.08,2.22z"/>
   <path class="fil2" d="M16.63 74.33c0.61,0.25 1.28,0.4 1.98,0.4 1.07,0 2.06,-0.33 2.88,-0.9l-4.86 0.5z"/>
   <path class="fil3" d="M13.91 74.66c1.23,1.15 2.89,1.86 4.7,1.86 2.34,0 4.41,-1.17 5.66,-2.97l-2.78 0.28c-0.82,0.57 -1.81,0.9 -2.88,0.9 -0.7,0 -1.37,-0.15 -1.97,-0.4l-0.66 0.06c-0.71,0.08 -1.4,0.17 -2.07,0.27z"/>
   <path class="fil1" d="M125.84 122.46c-0.35,-2.24 -1.83,-4.02 -3.77,-4.86 1.09,-0.95 1.84,-2.26 2.09,-3.79 0.55,-3.49 -1.82,-6.76 -5.31,-7.31 -2.23,-0.36 -4.38,0.5 -5.77,2.08 -0.57,-1.31 -1.58,-2.45 -2.97,-3.15 -3.13,-1.6 -6.97,-0.36 -8.58,2.79 -1.02,2.02 -0.87,4.33 0.2,6.15 -1.43,0.13 -2.82,0.74 -3.91,1.84 -2.49,2.49 -2.49,6.54 0,9.03 1.6,1.6 3.85,2.17 5.91,1.71 -0.33,1.4 -0.17,2.92 0.53,4.3 1.6,3.14 5.44,4.39 8.58,2.79 2.02,-1.03 3.25,-2.98 3.45,-5.09 1.23,0.74 2.72,1.06 4.25,0.81 3.48,-0.55 5.85,-3.82 5.3,-7.3z"/>
   <path class="fil2" d="M115.26 115.41c-1.99,-1.99 -5.21,-1.99 -7.2,0 -1.98,1.98 -1.98,5.21 0,7.2 1.99,1.98 5.21,1.98 7.2,0 1.98,-1.99 1.98,-5.21 0,-7.2z"/>
   <path class="fil3" d="M116.52 114.14c-2.67,-2.68 -7.04,-2.68 -9.72,0 -2.68,2.69 -2.68,7.05 0,9.74 2.68,2.68 7.05,2.68 9.72,0 2.69,-2.69 2.69,-7.06 0,-9.74zm-1.26 1.27c1.98,1.99 1.98,5.21 0,7.2 -1.99,1.98 -5.21,1.98 -7.2,0 -1.98,-1.99 -1.98,-5.22 0,-7.2 1.99,-1.99 5.21,-1.99 7.2,0z"/>
   <path class="fil1" d="M131.65 175.08c-0.35,-2.24 -1.83,-4.01 -3.77,-4.86 1.08,-0.94 1.84,-2.26 2.09,-3.79 0.54,-3.48 -1.83,-6.75 -5.31,-7.31 -2.24,-0.35 -4.39,0.51 -5.78,2.09 -0.56,-1.31 -1.57,-2.45 -2.96,-3.15 -3.14,-1.61 -6.98,-0.36 -8.58,2.79 -1.02,2.02 -0.87,4.33 0.2,6.14 -1.43,0.14 -2.82,0.75 -3.91,1.84 -2.49,2.5 -2.49,6.55 0,9.04 1.6,1.6 3.84,2.17 5.9,1.71 -0.32,1.41 -0.16,2.92 0.54,4.3 1.6,3.14 5.44,4.39 8.58,2.79 2.02,-1.03 3.25,-2.99 3.45,-5.09 1.23,0.73 2.71,1.05 4.24,0.81 3.49,-0.55 5.86,-3.82 5.31,-7.31z"/>
   <path class="fil2" d="M121.06 168.04c-1.98,-1.99 -5.2,-1.99 -7.19,0 -1.98,1.98 -1.98,5.21 0,7.2 1.99,1.98 5.21,1.98 7.19,0 1.99,-1.99 1.99,-5.21 0,-7.2z"/>
   <path class="fil3" d="M122.33 166.77c-2.68,-2.68 -7.05,-2.68 -9.72,0 -2.68,2.69 -2.68,7.05 0,9.74 2.67,2.68 7.04,2.68 9.72,0 2.68,-2.69 2.68,-7.06 0,-9.74zm-1.27 1.27c1.99,1.99 1.99,5.21 0,7.2 -1.98,1.98 -5.2,1.98 -7.19,0 -1.98,-1.99 -1.98,-5.22 0,-7.2 1.99,-1.99 5.21,-1.99 7.19,0z"/>
   <path class="fil1" d="M153.21 206.84c-0.93,-1.61 -2.55,-2.8 -4.53,-3.12 -0.32,-0.05 -0.64,-0.07 -0.95,-0.08l5.48 3.2z"/>
   <path class="fil4" d="M170.84 144.07c-1.84,-1.33 -4.13,-1.54 -6.1,-0.77 0.09,-1.43 -0.3,-2.9 -1.2,-4.15 -2.07,-2.85 -6.06,-3.49 -8.92,-1.41 -1.83,1.33 -2.74,3.45 -2.6,5.56 -1.34,-0.53 -2.86,-0.62 -4.33,-0.14 -3.35,1.1 -5.18,4.7 -4.09,8.06 0.7,2.15 2.43,3.68 4.48,4.2 -0.92,1.11 -1.46,2.53 -1.46,4.07 0,3.53 2.85,6.39 6.37,6.39 2.27,0 4.25,-1.18 5.39,-2.96 0.76,1.21 1.94,2.17 3.41,2.65 3.35,1.09 6.94,-0.74 8.04,-4.1 0.69,-2.16 0.18,-4.41 -1.15,-6.04 1.38,-0.36 2.66,-1.18 3.57,-2.43 2.07,-2.86 1.43,-6.86 -1.41,-8.93z"/>
   <path class="fil2" d="M158.38 146.59c-2.81,0 -5.09,2.28 -5.09,5.08 0,2.82 2.28,5.1 5.09,5.1 2.81,0 5.08,-2.28 5.08,-5.1 0,-2.8 -2.27,-5.08 -5.08,-5.08z"/>
   <path class="fil3" d="M158.38 156.77c-2.81,0 -5.09,-2.28 -5.09,-5.1 0,-2.81 2.28,-5.08 5.09,-5.08 2.81,0 5.08,2.27 5.08,5.08 0,2.82 -2.27,5.1 -5.08,5.1zm0 -11.98c-3.8,0 -6.88,3.09 -6.88,6.88 0,3.8 3.08,6.89 6.88,6.89 3.79,0 6.87,-3.09 6.87,-6.89 0,-3.79 -3.08,-6.88 -6.87,-6.88z"/>
   <path class="fil4" d="M78.45 92.39c-1.84,-1.33 -4.13,-1.54 -6.09,-0.77 0.09,-1.43 -0.3,-2.9 -1.21,-4.15 -2.07,-2.86 -6.06,-3.49 -8.91,-1.42 -1.84,1.34 -2.75,3.46 -2.62,5.57 -1.33,-0.53 -2.84,-0.61 -4.32,-0.14 -3.34,1.1 -5.18,4.7 -4.09,8.06 0.7,2.15 2.43,3.67 4.48,4.2 -0.92,1.11 -1.47,2.52 -1.47,4.07 0,3.53 2.86,6.39 6.38,6.39 2.26,0 4.25,-1.18 5.38,-2.96 0.77,1.21 1.95,2.17 3.42,2.65 3.35,1.09 6.94,-0.75 8.04,-4.1 0.7,-2.16 0.19,-4.41 -1.15,-6.04 1.38,-0.36 2.66,-1.18 3.57,-2.43 2.07,-2.86 1.44,-6.86 -1.41,-8.93z"/>
   <path class="fil2" d="M65.99 94.9c-2.81,0 -5.09,2.28 -5.09,5.1 0,2.81 2.28,5.08 5.09,5.08 2.8,0 5.08,-2.27 5.08,-5.08 0,-2.82 -2.28,-5.1 -5.08,-5.1z"/>
   <path class="fil3" d="M65.99 105.08c-2.81,0 -5.09,-2.28 -5.09,-5.08 0,-2.82 2.28,-5.1 5.09,-5.1 2.8,0 5.08,2.28 5.08,5.1 0,2.8 -2.28,5.08 -5.08,5.08zm0 -11.97c-3.79,0 -6.88,3.09 -6.88,6.89 0,3.79 3.09,6.89 6.88,6.89 3.79,0 6.87,-3.1 6.87,-6.89 0,-3.8 -3.08,-6.89 -6.87,-6.89z"/>
   <path class="fil4" d="M172.24 204.32c1.83,1.33 4.13,1.53 6.1,0.76 -0.09,1.44 0.3,2.9 1.2,4.16 2.07,2.85 6.06,3.48 8.91,1.41 0.16,-0.12 0.32,-0.24 0.46,-0.37 0.5,-2.86 0.35,-6.37 -0.54,-10.47l0 0 -3.23 -14.95c-0.16,0.19 -0.3,0.4 -0.44,0.61 -0.76,-1.21 -1.94,-2.18 -3.41,-2.65 -3.35,-1.09 -6.95,0.74 -8.04,4.1 -0.7,2.15 -0.18,4.41 1.15,6.04 -1.39,0.35 -2.66,1.18 -3.57,2.43 -2.07,2.85 -1.45,6.85 1.41,8.93z"/>
   <path class="fil2" d="M184.7 201.8c1.48,0 2.81,-0.64 3.74,-1.64l-0.07 -0.35 0 0 -1.68 -7.79c-0.61,-0.26 -1.28,-0.4 -1.99,-0.4 -2.81,0 -5.08,2.28 -5.08,5.09 0,2.81 2.27,5.09 5.08,5.09z"/>
   <path class="fil3" d="M184.7 191.62c0.71,0 1.38,0.14 1.99,0.4l-0.44 -2.02c-0.5,-0.12 -1.01,-0.18 -1.55,-0.18 -3.79,0 -6.87,3.09 -6.87,6.89 0,3.79 3.08,6.89 6.87,6.89 1.55,0 2.97,-0.51 4.12,-1.38 -0.1,-0.67 -0.23,-1.36 -0.38,-2.06 -0.93,1 -2.26,1.64 -3.74,1.64 -2.81,0 -5.08,-2.28 -5.08,-5.09 0,-2.81 2.27,-5.09 5.08,-5.09z"/>
   <path class="fil4" d="M89.63 198.94c-0.48,-2.01 -1.88,-3.59 -3.67,-4.36 1.08,-0.96 1.84,-2.27 2.08,-3.8 0.55,-3.48 -1.82,-6.76 -5.31,-7.31 -2.23,-0.35 -4.37,0.5 -5.77,2.09 -0.57,-1.32 -1.58,-2.46 -2.96,-3.16 -3.14,-1.6 -6.98,-0.35 -8.58,2.79 -1.03,2.02 -0.88,4.33 0.19,6.15 -1.42,0.13 -2.81,0.75 -3.91,1.84 -2.49,2.5 -2.49,6.55 0,9.03 1.6,1.61 3.84,2.18 5.91,1.72 -0.32,1.4 -0.17,2.91 0.53,4.29 0.43,0.84 1.01,1.54 1.69,2.09l16.85 -9.82c0.95,-0.55 1.93,-1.07 2.95,-1.55z"/>
   <path class="fil2" d="M79.14 192.39c-1.98,-1.99 -5.21,-1.99 -7.19,-0.01 -1.98,1.99 -1.98,5.21 0,7.21 1.98,1.98 5.21,1.98 7.18,-0.01 1.99,-1.99 1.99,-5.21 0.01,-7.19z"/>
   <path class="fil3" d="M71.95 199.59c-1.99,-2 -1.99,-5.22 0,-7.21 1.98,-1.98 5.2,-1.98 7.19,0 1.98,1.99 1.98,5.22 -0.01,7.2 -1.98,1.99 -5.2,1.99 -7.18,0.01zm8.46 -8.48c-2.68,-2.68 -7.05,-2.68 -9.73,0 -2.68,2.69 -2.68,7.06 0,9.74 2.68,2.68 7.04,2.69 9.73,0 2.68,-2.68 2.68,-7.05 0,-9.74z"/>
   <path class="fil4" d="M111.58 50.92c-0.35,-2.24 -1.83,-4.02 -3.76,-4.86 1.07,-0.95 1.83,-2.26 2.08,-3.79 0.55,-3.49 -1.82,-6.75 -5.31,-7.31 -2.23,-0.35 -4.38,0.51 -5.77,2.08 -0.58,-1.31 -1.59,-2.45 -2.96,-3.15 -1.16,-0.59 -2.41,-0.79 -3.61,-0.65l-2.42 5.48c-1.85,4.21 -4.58,8.31 -7.92,12.11 0.28,1.06 0.83,2.05 1.65,2.88 1.6,1.6 3.85,2.17 5.91,1.71 -0.32,1.4 -0.17,2.92 0.53,4.29 1.6,3.14 5.44,4.39 8.58,2.8 2.02,-1.03 3.25,-2.99 3.45,-5.09 1.24,0.73 2.72,1.05 4.25,0.81 3.48,-0.55 5.85,-3.82 5.3,-7.31z"/>
   <path class="fil2" d="M101 43.87c-1.99,-1.98 -5.21,-1.98 -7.2,0 -1.98,1.99 -1.98,5.21 0,7.2 1.99,1.99 5.21,1.99 7.2,0 1.98,-1.99 1.98,-5.21 0,-7.2z"/>
   <path class="fil3" d="M93.8 51.07c-1.98,-1.99 -1.98,-5.21 0,-7.2 1.99,-1.99 5.21,-1.99 7.2,0 1.98,1.99 1.98,5.21 0,7.2 -1.99,1.99 -5.21,1.99 -7.2,0zm8.47 -8.47c-2.69,-2.68 -7.05,-2.68 -9.73,0 -2.68,2.69 -2.68,7.06 0,9.74 2.68,2.69 7.04,2.69 9.72,0 2.69,-2.68 2.69,-7.05 0.01,-9.74z"/>
   <path class="fil4" d="M156.39 76.72c-0.35,-2.24 -1.83,-4.01 -3.76,-4.85 1.07,-0.95 1.83,-2.27 2.08,-3.8 0.55,-3.48 -1.82,-6.75 -5.31,-7.3 -2.23,-0.36 -4.38,0.5 -5.77,2.08 -0.57,-1.32 -1.58,-2.45 -2.96,-3.16 -3.14,-1.59 -6.98,-0.34 -8.59,2.8 -1.02,2.02 -0.87,4.32 0.21,6.14 -1.43,0.14 -2.82,0.75 -3.92,1.85 -2.49,2.49 -2.49,6.54 0,9.03 1.61,1.61 3.84,2.17 5.91,1.71 -0.32,1.4 -0.17,2.92 0.53,4.3 1.6,3.14 5.44,4.39 8.58,2.79 2.02,-1.03 3.25,-2.99 3.45,-5.09 1.24,0.73 2.72,1.05 4.25,0.82 3.48,-0.56 5.85,-3.83 5.3,-7.32z"/>
   <path class="fil2" d="M145.81 69.68c-1.99,-1.99 -5.21,-1.99 -7.19,0 -1.99,1.99 -1.99,5.21 0,7.2 1.98,1.99 5.2,1.98 7.19,0 1.98,-1.99 1.98,-5.21 0,-7.2z"/>
   <path class="fil3" d="M138.62 76.88c-1.99,-1.99 -1.99,-5.21 0,-7.2 1.98,-1.99 5.2,-1.99 7.19,0 1.98,1.99 1.98,5.21 0,7.2 -1.99,1.98 -5.21,1.99 -7.19,0zm8.46 -8.47c-2.69,-2.68 -7.05,-2.69 -9.73,0 -2.69,2.69 -2.69,7.05 0,9.74 2.68,2.68 7.04,2.68 9.72,0 2.68,-2.69 2.68,-7.05 0.01,-9.74z"/>
   <path class="fil4" d="M212.09 77.45c-0.2,-1.29 -0.78,-2.42 -1.59,-3.31l-26.31 -2.68 -0.33 -0.03c-2.28,2.51 -2.21,6.39 0.21,8.81 1.6,1.6 3.84,2.17 5.9,1.71 -0.31,1.4 -0.16,2.92 0.54,4.29 1.6,3.14 5.44,4.39 8.58,2.79 2.02,-1.02 3.25,-2.98 3.45,-5.08 1.24,0.73 2.71,1.05 4.25,0.81 3.48,-0.55 5.85,-3.82 5.3,-7.31z"/>
   <path class="fil2" d="M193.09 72.37c-0.6,1.78 -0.19,3.82 1.22,5.23 1.99,1.99 5.21,1.99 7.19,0 1.16,-1.15 1.64,-2.72 1.46,-4.23l-9.87 -1z"/>
   <path class="fil3" d="M194.31 77.6c-1.41,-1.41 -1.82,-3.45 -1.22,-5.23l-1.81 -0.19c-0.63,2.31 -0.04,4.88 1.76,6.7 2.68,2.68 7.05,2.68 9.73,0 1.46,-1.46 2.12,-3.41 2,-5.32l-1.81 -0.19c0.18,1.51 -0.3,3.08 -1.46,4.23 -1.99,1.99 -5.2,1.99 -7.19,0z"/>
   <path class="fil4" d="M107.22 5.75c-0.1,-0.64 -0.29,-1.24 -0.56,-1.79 -1.86,1.99 -3.61,4.72 -5.14,8.21l0 0 -0.43 0.97c0.28,-0.01 0.55,-0.03 0.83,-0.08 3.48,-0.55 5.85,-3.82 5.3,-7.31z"/>
  </g>
 </g>
</svg>
